<svg width="63" height="77" viewBox="0 0 63 77" fill="none" xmlns="http://www.w3.org/2000/svg">
<path fill-rule="evenodd" clip-rule="evenodd" d="M46.6072 0C46.9495 4.47036 45.5358 8.89809 42.6662 12.3429C41.2921 14.052 39.5481 15.427 37.5655 16.3643C35.583 17.3017 33.4136 17.777 31.2208 17.7544C31.0809 15.6046 31.366 13.4484 32.06 11.4089C32.7539 9.36945 33.843 7.48674 35.265 5.86842C38.1734 2.55577 42.223 0.460463 46.6072 0ZM54.6029 32.5362C53.146 35.1032 52.3621 37.997 52.324 40.9484C52.3276 44.2682 53.3083 47.5136 55.144 50.2798C56.9796 53.0461 59.5889 55.2107 62.6466 56.504C61.4444 60.4092 59.6323 64.0999 57.2774 67.4391C54.1148 72.17 50.7989 76.7919 45.5359 76.8773C43.0329 76.9351 41.3433 76.2153 39.5827 75.4653C37.7462 74.683 35.8325 73.8678 32.838 73.8678C29.6621 73.8678 27.6627 74.7092 25.7344 75.5208C24.068 76.2221 22.4547 76.901 20.181 76.9953C15.1688 77.181 11.3383 71.9461 8.06075 67.2596C1.50983 57.6889 -3.59124 40.288 3.24748 28.4479C4.82621 25.611 7.11289 23.2314 9.88472 21.5409C12.6566 19.8505 15.819 18.9069 19.0639 18.8021C21.9066 18.7436 24.6344 19.8392 27.0259 20.7998C28.8549 21.5345 30.4872 22.1901 31.8238 22.1901C32.9987 22.1901 34.5855 21.5604 36.4347 20.8264C39.3476 19.6703 42.9119 18.2557 46.544 18.637C49.3276 18.7241 52.0525 19.459 54.5024 20.7834C56.9523 22.1079 59.0596 23.9853 60.6569 26.2666C58.1425 27.8125 56.0599 29.9692 54.6029 32.5362Z" fill="white"/>
</svg>
