<svg width="60" height="68" viewBox="0 0 60 68" fill="none" xmlns="http://www.w3.org/2000/svg">
<path fill-rule="evenodd" clip-rule="evenodd" d="M2.74316 0C3.55868 0.0502501 4.2317 0.385251 4.87896 0.755275C13.2252 5.517 21.5677 10.2833 29.9109 15.0499L37.2661 19.2519C37.6642 19.4792 38.0619 19.7072 38.4597 19.9353L38.4601 19.9355C39.6372 20.6104 40.8146 21.2855 42.003 21.941C42.4942 22.2121 42.6366 22.4024 42.1758 22.8684C39.5444 25.5225 36.9296 28.1934 34.3284 30.8764C33.9237 31.2936 33.6645 31.3241 33.2355 30.8916C26.2507 23.8623 19.26 16.8389 12.2696 9.81567C9.21112 6.74286 6.1527 3.6701 3.09484 0.596911C3.07243 0.574402 3.04855 0.552633 3.02418 0.530416L3.02418 0.530412C2.90017 0.417358 2.76343 0.292703 2.74316 0ZM0.000968693 3.2488V33.7826H0.00854782V63.252C0.00854782 63.3786 0.00802295 63.5053 0.00749808 63.6319C0.00602844 63.9864 0.00455881 64.341 0.0146111 64.6956C0.0157856 64.7374 0.0139456 64.7824 0.0120658 64.8282C0.00424143 65.0192 -0.0042711 65.227 0.201058 65.3031C0.393891 65.3738 0.506935 65.2261 0.615141 65.0848C0.651535 65.0373 0.687382 64.9905 0.725533 64.9529C1.15358 64.5293 1.5818 64.1059 2.01001 63.6825L2.04745 63.6455L2.05732 63.6357L2.05777 63.6353L2.05798 63.6351C3.76861 61.9438 5.47896 60.2527 7.17688 58.5483C10.285 55.4296 13.3917 52.3095 16.4985 49.1894L16.5024 49.1854L16.5128 49.1749C21.4393 44.2273 26.3659 39.2795 31.2982 34.3369C31.7014 33.9318 31.7636 33.6836 31.3225 33.242C24.9567 26.8635 18.5963 20.4783 12.2353 14.0926L12.23 14.0874L12.2294 14.0867C8.4121 10.2546 4.59457 6.42226 0.775555 2.59098C0.739642 2.55491 0.704918 2.51114 0.669391 2.46636L0.66939 2.46636L0.669388 2.46636C0.54447 2.30891 0.409635 2.13896 0.17832 2.24685C0.00161956 2.32983 0.00557356 2.5184 0.00938701 2.70025C0.0106115 2.75865 0.0118214 2.81635 0.00703199 2.86964C-0.00113223 2.96572 -0.000322483 3.06359 0.000484967 3.16119L0.000968693 3.2488ZM2.82013 67.1876L2.81916 67.1886C2.74237 67.271 2.65791 67.3616 2.56152 67.4639V67.4654C3.49645 67.6138 4.11911 67.2353 4.73555 66.8607L4.73564 66.8606C4.84677 66.7931 4.9577 66.7256 5.07021 66.6614C15.1646 60.892 25.2641 55.1297 35.3629 49.3678L35.3674 49.3652L41.9442 45.6127C42.6915 45.1864 42.699 45.159 42.0942 44.5483C41.3701 43.8171 40.6444 43.0875 39.9186 42.358L39.9185 42.3579L39.9185 42.3579C38.0781 40.5079 36.2379 38.6581 34.4257 36.7809C33.8815 36.2175 33.6102 36.2327 33.072 36.7748C24.9448 44.9603 16.8033 53.1325 8.66169 61.3049L3.23455 66.7528C3.10406 66.8829 2.97837 67.0177 2.82013 67.1876ZM58.6388 35.9946C59.3982 35.4525 59.9849 34.7672 59.9985 33.7546V33.7561C60.0212 33.2704 59.8181 32.8669 59.5695 32.4786C59.1451 31.8177 58.5175 31.3883 57.8597 31.0122C56.3826 30.1667 54.9039 29.3243 53.4251 28.4819C51.0021 27.1016 48.579 25.7212 46.1636 24.3274C45.6482 24.0289 45.348 24.0929 44.9418 24.5056C42.0693 27.4231 39.1832 30.3254 36.2774 33.208C35.8317 33.6496 35.8272 33.9115 36.2774 34.3576C39.1301 37.1853 41.9693 40.0298 44.7781 42.9017C45.2965 43.4301 45.6891 43.5001 46.3288 43.1255C48.1155 42.077 49.9153 41.0509 51.7153 40.0246C52.6549 39.4889 53.5946 38.9532 54.5324 38.4142C54.9257 38.1882 55.3233 37.9694 55.7209 37.7506C56.7163 37.2028 57.7116 36.655 58.6388 35.9946Z" fill="white"/>
</svg>
