<svg width="56" height="56" viewBox="0 0 56 56" fill="none" xmlns="http://www.w3.org/2000/svg">
<path d="M28.6221 52.2665C15.2444 52.2665 4.35547 41.3776 4.35547 27.9998C4.35547 14.622 15.2444 3.73315 28.6221 3.73315C41.9999 3.73315 52.8888 14.622 52.8888 27.9998C52.8888 41.3776 41.9999 52.2665 28.6221 52.2665ZM28.6221 5.80723C16.3851 5.80723 6.42954 15.7628 6.42954 27.9998C6.42954 40.2369 16.3851 50.1924 28.6221 50.1924C40.8592 50.1924 50.8147 40.2369 50.8147 27.9998C50.8147 15.7628 40.8592 5.80723 28.6221 5.80723Z" fill="white"/>
<path d="M28.622 52.2665C21.6738 52.2665 16.2812 41.585 16.2812 27.9998C16.2812 14.4146 21.6738 3.73315 28.622 3.73315C35.5701 3.73315 40.9627 14.4146 40.9627 27.9998C40.9627 41.585 35.4664 52.2665 28.622 52.2665ZM28.622 5.80723C23.022 5.80723 18.3553 15.9702 18.3553 27.9998C18.3553 40.0294 23.022 50.1924 28.622 50.1924C34.222 50.1924 38.8887 40.0294 38.8887 27.9998C38.8887 15.9702 34.1183 5.80723 28.622 5.80723Z" fill="white"/>
<path d="M28.622 19.289C22.1924 19.289 15.7627 17.6298 10.059 14.5186C9.54052 14.2075 9.33311 13.5853 9.64422 13.0668C9.95533 12.5483 10.5776 12.3409 11.0961 12.652C16.385 15.5557 22.5035 17.1112 28.622 17.1112C34.8442 17.1112 40.859 15.5557 46.2516 12.5483C46.7701 12.2372 47.3924 12.4446 47.7035 12.9631C48.0146 13.4816 47.8072 14.1038 47.2887 14.4149C41.585 17.6298 35.1553 19.289 28.622 19.289ZM10.785 44.0742C10.3701 44.0742 10.059 43.8668 9.85163 43.5557C9.54052 43.0372 9.74793 42.4149 10.2664 42.1038C15.8664 39.0964 22.1924 37.4372 28.5183 37.4372C34.8442 37.4372 41.1701 38.9927 46.7701 42.0001C47.2887 42.3112 47.4961 42.9335 47.185 43.452C46.8738 43.9705 46.2516 44.1779 45.7331 43.8668C40.4442 40.9631 34.5331 39.5112 28.5183 39.5112C22.5035 39.5112 16.4887 41.0668 11.1998 43.8668C11.0961 44.0742 10.9924 44.0742 10.785 44.0742Z" fill="white"/>
<path d="M51.8518 29.2442H5.39251C4.77028 29.2442 4.35547 28.8294 4.35547 28.2072C4.35547 27.585 4.77028 27.1702 5.39251 27.1702H51.8518C52.474 27.1702 52.8888 27.585 52.8888 28.2072C52.8888 28.8294 52.3703 29.2442 51.8518 29.2442Z" fill="white"/>
</svg>
