<svg width="38" height="71" viewBox="0 0 38 71" fill="none" xmlns="http://www.w3.org/2000/svg">
<path d="M19.3087 69.7525C17.9015 71.2843 15.5458 71.4122 13.9328 70.0988L6.44769 64.0043C4.61257 62.5101 4.46741 59.7686 6.03252 57.9936C10.5497 52.8705 13.7849 47.8483 15.7381 42.9268C16.6914 40.5246 14.7826 38.1145 12.1981 38.1145H4.0232C1.80125 38.1145 0 36.3133 0 34.0913V4.0232C0 1.80124 1.80125 0 4.0232 0H33.733C35.955 0 37.7562 1.80125 37.7562 4.0232V24.5362C37.7562 33.5884 36.2024 41.8466 33.0949 49.3106C30.3363 55.9368 25.7409 62.7508 19.3087 69.7525Z" fill="#62BFF9"/>
</svg>
