<svg width="35" height="35" viewBox="0 0 35 35" fill="none" xmlns="http://www.w3.org/2000/svg">
<path fill-rule="evenodd" clip-rule="evenodd" d="M17.5 35C27.165 35 35 27.165 35 17.5C35 7.83502 27.165 0 17.5 0C7.83502 0 0 7.83502 0 17.5C0 27.165 7.83502 35 17.5 35ZM18.9343 28.2246V23.6356H18.9353V19.0598C18.9353 18.9062 19.0165 18.8294 19.1787 18.8294C19.415 18.8294 19.6513 18.8293 19.8875 18.8292C20.5967 18.8289 21.3058 18.8286 22.015 18.831C22.1355 18.8316 22.1997 18.797 22.2183 18.6735C22.2543 18.4316 22.2935 18.1902 22.3327 17.9489C22.3604 17.7788 22.388 17.6087 22.4145 17.4385C22.4709 17.0752 22.5268 16.7119 22.5827 16.3485C22.6494 15.9145 22.7162 15.4804 22.7839 15.0465C22.8102 14.8779 22.8003 14.8608 22.6233 14.8608H19.1847C19.171 14.8608 19.1573 14.8605 19.1435 14.8601C19.116 14.8594 19.0884 14.8587 19.0614 14.8608C18.9589 14.8693 18.9321 14.8262 18.9326 14.7278C18.9375 13.9386 18.9364 13.15 18.9353 12.3613V12.3598C18.9353 12.1864 18.9392 12.0145 18.9693 11.8431C19.0362 11.4637 19.1792 11.12 19.4549 10.8353C19.8594 10.4176 20.379 10.2563 20.9468 10.2393C21.3645 10.2268 21.783 10.2293 22.2015 10.2319C22.386 10.233 22.5704 10.2342 22.7549 10.234C22.956 10.234 22.9686 10.2228 22.9686 10.0345V7.02847C22.9686 6.84755 22.9576 6.83372 22.7746 6.80711C22.3728 6.74804 21.9711 6.69377 21.5661 6.66078C21.5031 6.65566 21.4401 6.65046 21.3771 6.64526C20.6675 6.58667 19.9588 6.52816 19.2445 6.58681C18.6679 6.63417 18.1056 6.73687 17.5652 6.93961C16.2624 7.4281 15.3751 8.31303 14.8884 9.58108C14.6308 10.2526 14.5119 10.9508 14.5026 11.6633C14.4933 12.3712 14.4952 13.0797 14.4971 13.7881C14.4979 14.0819 14.4987 14.3756 14.4987 14.6693C14.4987 14.8587 14.4976 14.8603 14.2981 14.8603H11.133C10.9516 14.8603 10.9374 14.8741 10.9374 15.0497V18.6144C10.9374 18.8172 10.9505 18.8284 11.1664 18.8284H14.2219C14.2356 18.8284 14.2494 18.8287 14.2632 18.8291C14.2907 18.8298 14.3182 18.8305 14.3453 18.8284C14.4549 18.8193 14.5091 18.8624 14.4993 18.9736C14.4971 19.0031 14.4978 19.0328 14.4985 19.0624C14.4989 19.0772 14.4993 19.092 14.4993 19.1067V28.2188C14.4996 28.3646 14.5756 28.4375 14.7273 28.4375H18.7139C18.8608 28.4371 18.9343 28.3662 18.9343 28.2246Z" fill="white" fill-opacity="0.9"/>
</svg>
