<svg width="36" height="36" viewBox="0 0 36 36" fill="none" xmlns="http://www.w3.org/2000/svg">
<path d="M18.0105 3.24203C22.8227 3.24203 23.3926 3.26313 25.2851 3.34752C27.0439 3.42488 27.9937 3.72025 28.6269 3.96639C29.4641 4.28989 30.0691 4.68372 30.6953 5.30962C31.3285 5.94256 31.7154 6.54033 32.039 7.37721C32.2853 8.01015 32.5808 8.96658 32.6581 10.7177C32.7426 12.6165 32.7637 13.1861 32.7637 17.9894C32.7637 22.7997 32.7426 23.3694 32.6581 25.2611C32.5808 27.0193 32.2853 27.9687 32.039 28.6016C31.7154 29.4385 31.3214 30.0433 30.6953 30.6692C30.0621 31.3022 29.4641 31.689 28.6269 32.0125C27.9937 32.2586 27.0369 32.554 25.2851 32.6313C23.3855 32.7157 22.8157 32.7368 18.0105 32.7368C13.1983 32.7368 12.6285 32.7157 10.736 32.6313C8.97712 32.554 8.02735 32.2586 7.39417 32.0125C6.55696 31.689 5.95192 31.2951 5.32577 30.6692C4.69259 30.0363 4.30564 29.4385 3.98201 28.6016C3.73578 27.9687 3.44029 27.0123 3.3629 25.2611C3.27848 23.3623 3.25737 22.7927 3.25737 17.9894C3.25737 13.1791 3.27848 12.6095 3.3629 10.7177C3.44029 8.95955 3.73578 8.01015 3.98201 7.37721C4.30564 6.54033 4.69962 5.93553 5.32577 5.30962C5.95895 4.67669 6.55696 4.28989 7.39417 3.96639C8.02735 3.72025 8.98416 3.42488 10.736 3.34752C12.6285 3.26313 13.1983 3.24203 18.0105 3.24203ZM18.0105 0C13.1209 0 12.5089 0.0210978 10.5882 0.105489C8.6746 0.189881 7.35899 0.499315 6.21926 0.94237C5.03028 1.40652 4.02423 2.01836 3.02521 3.02402C2.01915 4.02265 1.40707 5.02832 0.942738 6.2098C0.499511 7.35611 0.189955 8.66418 0.10553 10.577C0.0211061 12.504 0 13.1158 0 18.0035C0 22.8912 0.0211061 23.503 0.10553 25.4229C0.189955 27.3358 0.499511 28.6509 0.942738 29.7902C1.40707 30.9787 2.01915 31.9843 3.02521 32.983C4.02423 33.9816 5.03028 34.6005 6.21222 35.0576C7.35899 35.5006 8.66757 35.8101 10.5812 35.8945C12.5018 35.9788 13.1139 35.9999 18.0035 35.9999C22.8931 35.9999 23.5051 35.9788 25.4258 35.8945C27.3394 35.8101 28.655 35.5006 29.7948 35.0576C30.9767 34.6005 31.9828 33.9816 32.9818 32.983C33.9808 31.9843 34.5999 30.9787 35.0572 29.7972C35.5004 28.6509 35.81 27.3428 35.8944 25.4299C35.9788 23.51 35.9999 22.8982 35.9999 18.0105C35.9999 13.1229 35.9788 12.511 35.8944 10.5911C35.81 8.67824 35.5004 7.36315 35.0572 6.22386C34.614 5.02832 34.0019 4.02265 32.9958 3.02402C31.9968 2.02539 30.9908 1.40652 29.8088 0.949403C28.6621 0.506348 27.3535 0.196913 25.4399 0.112522C23.5122 0.0210978 22.9001 0 18.0105 0Z" fill="white" fill-opacity="0.9"/>
<path d="M18.0106 8.75545C12.903 8.75545 8.75913 12.8977 8.75913 18.0033C8.75913 23.109 12.903 27.2512 18.0106 27.2512C23.1183 27.2512 27.2621 23.109 27.2621 18.0033C27.2621 12.8977 23.1183 8.75545 18.0106 8.75545ZM18.0106 24.0022C14.697 24.0022 12.0095 21.3157 12.0095 18.0033C12.0095 14.691 14.697 12.0045 18.0106 12.0045C21.3243 12.0045 24.0118 14.691 24.0118 18.0033C24.0118 21.3157 21.3243 24.0022 18.0106 24.0022Z" fill="white" fill-opacity="0.9"/>
<path d="M29.7874 8.39118C29.7874 9.5872 28.8165 10.551 27.6276 10.551C26.4316 10.551 25.4677 9.58016 25.4677 8.39118C25.4677 7.19517 26.4386 6.23133 27.6276 6.23133C28.8165 6.23133 29.7874 7.20221 29.7874 8.39118Z" fill="white" fill-opacity="0.9"/>
</svg>
