<svg width="34" height="26" viewBox="0 0 34 26" fill="none" xmlns="http://www.w3.org/2000/svg">
<path d="M33.9871 12.7568C33.9813 13.7165 33.9907 14.4381 33.9517 15.1596C33.9056 16.0155 33.9027 16.8752 33.8284 17.7272C33.7548 18.5659 33.6971 19.4077 33.5687 20.2416C33.4677 20.8953 33.3891 21.5543 33.1878 22.1814C32.7153 23.6549 31.784 24.6388 30.4213 25.137C29.9077 25.3245 29.3681 25.3799 28.8336 25.4627C28.1793 25.5634 27.5207 25.615 26.8642 25.6673C26.3564 25.7079 25.8478 25.7571 25.3371 25.768C24.545 25.7852 23.7544 25.8367 22.9616 25.8594C22.2784 25.8789 21.5946 25.9304 20.91 25.9203C20.0328 25.907 19.1563 25.9546 18.2799 25.9749C17.5592 25.9921 16.8378 26.0116 16.1179 25.9913C14.7429 25.9523 13.368 25.9382 11.9931 25.9093C11.2558 25.8937 10.5157 25.8812 9.77988 25.8297C8.75048 25.7571 7.71963 25.729 6.69095 25.6243C5.95659 25.5494 5.22223 25.4736 4.49148 25.3698C2.65197 25.1074 1.18469 23.8009 0.720127 21.8745C0.551325 21.1756 0.463317 20.4626 0.363046 19.7497C0.27071 19.0937 0.22887 18.4331 0.174767 17.7756C0.131484 17.2469 0.103351 16.7136 0.0817095 16.1818C0.0203925 14.6481 -0.0301038 13.1137 0.0211139 11.58C0.0506903 10.6984 0.0766598 9.8152 0.139419 8.93358C0.180538 8.35181 0.220935 7.76849 0.263496 7.18595C0.314714 6.48002 0.407771 5.77956 0.523191 5.08379C0.647268 4.33492 0.801642 3.59463 1.17604 2.93087C1.74087 1.93134 2.52645 1.23244 3.55585 0.866982C4.07669 0.681911 4.6206 0.620221 5.16164 0.537447C5.81592 0.437493 6.47454 0.385173 7.13099 0.332854C7.63884 0.292247 8.14741 0.243051 8.65814 0.232119C9.45021 0.214939 10.2416 0.165743 11.0336 0.139974C11.7175 0.117328 12.4006 0.0704744 13.0852 0.080626C13.9624 0.0931202 14.8389 0.0462668 15.7154 0.0251828C16.4245 0.00878411 17.1336 -0.011519 17.8413 0.00800322C19.2645 0.0478286 20.6878 0.0618846 22.1104 0.0907776C22.8058 0.104834 23.5019 0.13685 24.1973 0.164181C25.1437 0.201664 26.0895 0.278972 27.0352 0.348471C27.8669 0.409381 28.6965 0.501526 29.5218 0.631154C30.6695 0.81232 31.6534 1.33317 32.4116 2.30148C32.8906 2.91291 33.1784 3.62587 33.3451 4.40676C33.4965 5.11737 33.586 5.83813 33.6754 6.55733C33.7209 6.92122 33.7404 7.29449 33.7757 7.66151C33.832 8.24952 33.8298 8.84143 33.894 9.42866C33.8998 9.4802 33.9099 9.53174 33.9092 9.58406C33.9005 10.7218 34.0426 11.8557 33.9871 12.7568ZM13.5707 12.9794C13.5707 14.6965 13.5707 16.4145 13.5707 18.1317C13.5707 18.3823 13.5729 18.3839 13.7633 18.2668C15.0106 17.4976 16.2571 16.7261 17.5044 15.9577C19.0496 15.0058 20.5962 14.057 22.1421 13.1059C22.3116 13.0012 22.3123 12.9958 22.1435 12.8927C21.4957 12.4952 20.8465 12.1001 20.1994 11.7011C18.0541 10.379 15.9094 9.0554 13.7648 7.73257C13.5729 7.61465 13.5707 7.61622 13.5707 7.86532C13.5707 9.57 13.5707 11.2739 13.5707 12.9786V12.9794Z" fill="white" fill-opacity="0.9"/>
</svg>
