<svg width="31" height="33" viewBox="0 0 31 33" fill="none" xmlns="http://www.w3.org/2000/svg">
<path d="M12.868 11.0827V16.8109C12.1894 16.8109 11.525 16.8078 10.8621 16.8109C8.52467 16.8204 6.52501 18.3543 5.89196 20.6218C5.09241 23.482 6.87687 26.4721 9.76249 27.1091C12.6403 27.7445 15.4787 25.8082 15.9469 22.883C16.0003 22.5471 16.027 22.2017 16.027 21.8594C16.0317 14.7668 16.0301 7.67421 16.0301 0.583205C16.0301 0.41207 16.0301 0.24252 16.0301 0.0270167C16.1872 0.0190938 16.3254 0.00800169 16.4621 0.00800169C18.0722 0.00800169 19.6823 0.0159246 21.2924 7.87729e-05C21.6066 -0.00309039 21.7778 0.0888154 21.9254 0.375625C22.6135 1.72094 23.4727 2.94582 24.5393 4.017C26.0693 5.55404 27.8758 6.54124 30.0341 6.82963C30.1378 6.84389 30.2399 6.86449 30.342 6.88826C30.3781 6.89618 30.4095 6.92312 30.4613 6.95164C30.1032 8.78184 29.7435 10.612 29.3838 12.4501C26.4809 12.0461 23.9063 11.0399 21.7495 8.86107C21.7495 9.09559 21.7495 9.24295 21.7495 9.39032C21.7495 13.5641 21.7527 17.7379 21.7495 21.9101C21.7448 26.9111 18.6597 31.1451 13.8985 32.5522C7.77853 34.3602 1.52348 30.5081 0.24639 24.3314C-0.969434 18.4557 2.41571 12.9762 8.16495 11.379C9.29438 11.0652 11.7119 10.9099 12.8696 11.0827H12.868Z" fill="white" fill-opacity="0.9"/>
</svg>
