<svg width="82" height="85" viewBox="0 0 82 85" fill="none" xmlns="http://www.w3.org/2000/svg">
<path fill-rule="evenodd" clip-rule="evenodd" d="M70.2109 6.83641V26.544C70.2109 27.6499 69.3144 28.5464 68.2085 28.5464C67.1027 28.5464 66.2062 27.6499 66.2062 26.544V6.83641L57.8818 15.1608C57.0998 15.9428 55.832 15.9428 55.05 15.1608C54.2681 14.3789 54.2681 13.111 55.05 12.3291L66.7926 0.586471C67.5746 -0.19549 68.8424 -0.19549 69.6244 0.586471L81.367 12.3291C82.149 13.111 82.149 14.3789 81.367 15.1608C80.585 15.9428 79.3172 15.9428 78.5353 15.1608L70.2109 6.83641ZM4.00467 17.855C4.00467 11.8518 8.87126 6.9852 14.8745 6.9852H46.1998C47.3056 6.9852 48.2021 6.08873 48.2021 4.98287C48.2021 3.87701 47.3056 2.98053 46.1998 2.98053H14.8745C6.65955 2.98053 0 9.64005 0 17.855V70.1062C0 78.3211 6.65952 84.9807 14.8745 84.9807H67.1257C75.3406 84.9807 82.0002 78.3211 82.0002 70.1062V36.1811C82.0002 35.0752 81.1037 34.1787 79.9978 34.1787C78.892 34.1787 77.9955 35.0752 77.9955 36.1811V46.8915L74.0709 43.9321C71.1692 41.7441 67.158 41.784 64.3004 44.0292L43.3685 60.4757C42.0701 61.4959 40.2787 61.6145 38.8571 60.7745L32.2168 56.8507C29.5581 55.2797 26.2331 55.3771 23.671 57.1011L4.00697 70.332C4.00544 70.2569 4.00467 70.1816 4.00467 70.1062V17.855ZM4.94238 74.5294C6.63669 78.3282 10.4464 80.976 14.8745 80.976H67.1257C73.1289 80.976 77.9955 76.1094 77.9955 70.1062V51.9071L71.6598 47.1296C70.209 46.0356 68.2034 46.0555 66.7745 47.1782L45.8427 63.6246C43.2459 65.665 39.663 65.9023 36.8198 64.2222L30.1795 60.2985C28.8502 59.513 27.1877 59.5617 25.9066 60.4236L4.94238 74.5294ZM29.378 36.3433C33.5854 36.3433 36.9962 32.9325 36.9962 28.7251C36.9962 24.5177 33.5854 21.1069 29.378 21.1069C25.1706 21.1069 21.7598 24.5177 21.7598 28.7251C21.7598 32.9325 25.1706 36.3433 29.378 36.3433ZM29.378 40.348C35.7971 40.348 41.0009 35.1443 41.0009 28.7251C41.0009 22.306 35.7971 17.1022 29.378 17.1022C22.9588 17.1022 17.7551 22.306 17.7551 28.7251C17.7551 35.1443 22.9588 40.348 29.378 40.348Z" fill="#101010"/>
</svg>
