<svg width="42" height="43" viewBox="0 0 42 43" fill="none" xmlns="http://www.w3.org/2000/svg">
<path d="M17.6252 1.3979C19.4891 -0.465966 22.511 -0.465966 24.3748 1.3979L33.0476 10.0707C34.166 11.189 34.166 13.0022 33.0476 14.1205C31.9293 15.2388 30.1162 15.2388 28.9978 14.1205L24.8182 9.94084C24.3332 9.43655 24.1195 9.12802 23.8637 8.50902V27.3684C23.8637 28.9499 22.5816 30.232 21 30.232C19.4185 30.232 18.1364 28.9499 18.1364 27.3684V8.50902C17.8678 9.11878 17.6553 9.42416 17.1818 9.94084L13.0022 14.1205C11.8839 15.2388 10.0707 15.2388 8.95239 14.1205C7.83407 13.0022 7.83407 11.189 8.95239 10.0707L17.6252 1.3979Z" fill="white"/>
<path d="M5.72728 28.8002C5.72728 27.2187 4.44519 25.9366 2.86365 25.9366C1.2821 25.9366 9.30157e-06 27.2187 9.30157e-06 28.8002L4.74995e-06 33.2912C-6.58003e-05 34.2743 -0.000130433 35.1773 0.0615393 35.9321C0.128028 36.7458 0.280231 37.6361 0.728284 38.5155C1.36889 39.7728 2.39108 40.7949 3.64835 41.4356C4.5277 41.8836 5.41799 42.0358 6.23177 42.1023C6.98651 42.164 7.88936 42.1639 8.87239 42.1638H33.1274C34.1104 42.1639 35.0135 42.164 35.7683 42.1023C36.582 42.0358 37.4723 41.8836 38.3517 41.4356C39.6089 40.7949 40.6311 39.7728 41.2717 38.5155C41.7198 37.6361 41.872 36.7458 41.9385 35.9321C42.0002 35.1773 42.0001 34.2744 42 33.2913L42 28.8002C42 27.2187 40.7179 25.9366 39.1364 25.9366C37.5548 25.9366 36.2727 27.2187 36.2727 28.8002V33.1911C36.2727 34.3075 36.2705 34.9727 36.2302 35.4657C36.2056 35.7666 36.1732 35.8931 36.1627 35.927C36.0729 36.0974 35.9336 36.2367 35.7632 36.3265C35.7292 36.337 35.6028 36.3695 35.3019 36.3941C34.8088 36.4343 34.1437 36.4366 33.0273 36.4366H8.97274C7.85629 36.4366 7.19118 36.4343 6.69815 36.3941C6.39725 36.3695 6.27077 36.337 6.23687 36.3265C6.06643 36.2367 5.92714 36.0974 5.83734 35.927C5.82682 35.8931 5.79438 35.7666 5.76979 35.4657C5.72951 34.9727 5.72728 34.3075 5.72728 33.1911V28.8002Z" fill="white"/>
</svg>
