<svg width="82" height="84" viewBox="0 0 82 84" fill="none" xmlns="http://www.w3.org/2000/svg">
<path d="M44 3V48.7575L59.8787 32.8788C61.0503 31.7072 62.9498 31.7072 64.1213 32.8788C65.2929 34.0504 65.2929 35.9499 64.1213 37.1214L45.9498 55.293C43.2161 58.0267 38.7839 58.0267 36.0503 55.293L17.8787 37.1214C16.7071 35.9499 16.7071 34.0504 17.8787 32.8788C19.0503 31.7072 20.9498 31.7072 22.1213 32.8788L38 48.7575V3C38 1.34315 39.3432 0 41 0C42.6569 0 44 1.34315 44 3Z" fill="#374151"/>
<path d="M6 59C6 57.3431 4.65686 56 3 56C1.34315 56 1.50944e-06 57.3431 1.50944e-06 59V68.3217C-3.93958e-05 70.4583 -7.35372e-05 72.2418 0.118962 73.6987C0.243113 75.2182 0.511557 76.6448 1.19893 77.9939C2.25354 80.0637 3.93633 81.7465 6.00611 82.8011C7.35516 83.4884 8.78179 83.7569 10.3013 83.881C11.7583 84.0001 13.5417 84 15.6783 84H66.3217C68.4583 84 70.2417 84.0001 71.6987 83.881C73.2182 83.7569 74.6448 83.4884 75.9939 82.8011C78.0637 81.7465 79.7465 80.0637 80.8011 77.9939C81.4884 76.6448 81.7569 75.2182 81.881 73.6987C82.0001 72.2418 82 70.4584 82 68.3218V59C82 57.3431 80.6569 56 79 56C77.3431 56 76 57.3431 76 59V68.2C76 70.4897 75.9977 72.0266 75.901 73.2101C75.8071 74.3586 75.6396 74.9077 75.455 75.27C74.9757 76.2108 74.2108 76.9757 73.27 77.455C72.9077 77.6396 72.3586 77.8071 71.2101 77.901C70.0266 77.9977 68.4897 78 66.2 78H15.8C13.5103 78 11.9734 77.9977 10.7899 77.901C9.64142 77.8071 9.0923 77.6396 8.73005 77.455C7.78924 76.9757 7.02434 76.2108 6.54497 75.27C6.3604 74.9077 6.19287 74.3586 6.09903 73.2101C6.00234 72.0266 6 70.4897 6 68.2V59Z" fill="#374151"/>
</svg>
