<svg width="83" height="94" viewBox="0 0 83 94" fill="none" xmlns="http://www.w3.org/2000/svg">
<path d="M18.6771 2.40009C20.2002 1.73219 21.8001 1.18726 23.4669 0.779648C25.1337 0.37203 26.8045 0.11712 28.4639 0.00673271C30.118 -0.103299 31.5481 1.14841 31.6581 2.80251C31.7682 4.4566 30.5165 5.88671 28.8624 5.99674C27.5479 6.08418 26.221 6.28628 24.893 6.61105C23.5649 6.93582 22.2945 7.36889 21.088 7.89795C19.5698 8.5637 17.7994 7.87266 17.1337 6.35447C16.4679 4.83627 17.1589 3.06584 18.6771 2.40009Z" fill="#374151"/>
<path d="M36.9956 3.62792C37.5979 2.08349 39.3383 1.3198 40.8827 1.92218C44.0329 3.15085 46.9499 4.92146 49.4937 7.1491C50.7408 8.24123 50.8665 10.1376 49.7744 11.3847C48.6822 12.6319 46.7859 12.7576 45.5387 11.6654C43.5191 9.89686 41.2023 8.49054 38.7013 7.51507C37.1569 6.91269 36.3932 5.17235 36.9956 3.62792Z" fill="#374151"/>
<path d="M12.7795 9.54995C14.0267 10.6421 14.1524 12.5384 13.0602 13.7856C11.2917 15.8052 9.88533 18.122 8.90986 20.623C8.30748 22.1674 6.56715 22.9311 5.02272 22.3288C3.47828 21.7264 2.71459 19.986 3.31697 18.4416C4.54565 15.2914 6.31626 12.3745 8.54389 9.83063C9.63602 8.58348 11.5324 8.45781 12.7795 9.54995Z" fill="#374151"/>
<path d="M4.1973 27.6662C5.8514 27.5561 7.2815 28.8079 7.39153 30.4619C7.47897 31.7764 7.68108 33.1033 8.00585 34.4314C8.33062 35.7594 8.76369 37.0298 9.29275 38.2363C9.9585 39.7545 9.26746 41.5249 7.74926 42.1907C6.23107 42.8564 4.46063 42.1654 3.79488 40.6472C3.12698 39.1241 2.58206 37.5242 2.17444 35.8574C1.76683 34.1906 1.51192 32.5198 1.40153 30.8604C1.2915 29.2063 2.54321 27.7762 4.1973 27.6662Z" fill="#374151"/>
<path d="M52.9699 15.7389C54.488 15.0731 56.2585 15.7641 56.9242 17.2823C57.5921 18.8054 58.1371 20.4053 58.5447 22.0721C58.9523 23.7389 59.2072 25.4097 59.3176 27.0691C59.4276 28.7232 58.1759 30.1533 56.5218 30.2633C54.8677 30.3734 53.4376 29.1217 53.3276 27.4676C53.2401 26.1531 53.038 24.8262 52.7133 23.4982C52.3885 22.1701 51.9554 20.8997 51.4264 19.6932C50.7606 18.175 51.4517 16.4046 52.9699 15.7389Z" fill="#374151"/>
<path d="M55.6964 35.6008C57.2408 36.2031 58.0045 37.9435 57.4021 39.4879C56.4864 41.8358 55.2696 44.0541 53.7869 46.085C55.1611 45.3747 56.7211 44.9735 58.3747 44.9735C62.8694 44.9735 66.6719 47.9373 67.9345 52.0172C69.2743 51.3513 70.7845 50.9768 72.3823 50.9768C77.9081 50.9768 82.3877 55.4563 82.3877 60.9822V90.9984C82.3877 92.6561 81.0438 94 79.386 94C77.7283 94 76.3844 92.6561 76.3844 90.9984V60.9822C76.3844 58.7718 74.5926 56.98 72.3823 56.98C70.1719 56.98 68.3801 58.7718 68.3801 60.9822V62.9832C68.3801 64.641 67.0362 65.9849 65.3785 65.9849C63.7207 65.9849 62.3768 64.641 62.3768 62.9832V54.9789C62.3768 52.7686 60.585 50.9768 58.3747 50.9768C56.1644 50.9768 54.3725 52.7686 54.3725 54.9789V61.9827C54.3725 63.6405 53.0287 64.9843 51.3709 64.9843C49.7132 64.9843 48.3693 63.6405 48.3693 61.9827V50.9768C48.3693 48.7664 46.5775 46.9746 44.3671 46.9746C42.1568 46.9746 40.365 48.7664 40.365 50.9768V60.9822C40.365 62.6399 39.0211 63.9838 37.3633 63.9838C35.7056 63.9838 34.3617 62.6399 34.3617 60.9822V30.9659C34.3617 28.7556 32.5699 26.9638 30.3596 26.9638C28.1492 26.9638 26.3574 28.7556 26.3574 30.9659V69.6732C26.3574 70.8872 25.6261 71.9817 24.5044 72.4463C23.3828 72.9109 22.0918 72.6541 21.2333 71.7956L14.5434 65.1057C12.5897 63.152 9.42218 63.152 7.4685 65.1057C5.51482 67.0594 5.51482 70.2269 7.4685 72.1806C7.48335 72.1955 7.49805 72.2105 7.51259 72.2256L23.5212 88.9209C24.6686 90.1175 24.6287 92.0176 23.4321 93.1649C22.2356 94.3123 20.3355 94.2724 19.1881 93.0758L3.19953 76.4014C-1.07451 72.1014 -1.0665 65.1508 3.22357 60.8608C7.52166 56.5627 14.4902 56.5627 18.7883 60.8608L20.3541 62.4266V56.1579C20.1804 56.1239 20.0072 56.074 19.8364 56.0073C16.6862 54.7787 13.7692 53.0081 11.2254 50.7804C9.97828 49.6883 9.85261 47.7919 10.9447 46.5448C12.0369 45.2976 13.9332 45.172 15.1804 46.2641C16.7443 47.6336 18.4863 48.7859 20.3541 49.6891V30.9659C20.3541 25.4401 24.8337 20.9605 30.3596 20.9605C35.8854 20.9605 40.365 25.4401 40.365 30.9659V41.8039C41.5905 41.2684 42.9441 40.9714 44.3671 40.9714C46.1128 40.9714 47.754 41.4184 49.1825 42.2042C50.2499 40.6853 51.1331 39.0401 51.8093 37.3065C52.4116 35.7621 54.152 34.9984 55.6964 35.6008Z" fill="#374151"/>
</svg>
