<svg width="12" height="15" viewBox="0 0 12 15" fill="none" xmlns="http://www.w3.org/2000/svg">
<path d="M5.1897 0.0162579C6.12786 -0.050877 7.06926 0.090456 7.94601 0.430061C8.82276 0.769666 9.61301 1.29908 10.2597 1.98011C10.9065 2.66114 11.3936 3.47682 11.6859 4.3683C11.9782 5.25979 12.0685 6.20486 11.9502 7.13535C11.9502 11.7126 9.46941 14.3437 5.1897 14.3437H0V0.0162579H5.1897ZM2.23153 12.3175H4.94044C5.61081 12.3574 6.28168 12.2478 6.90422 11.9966C7.52676 11.7454 8.08531 11.359 8.53918 10.8654C8.99305 10.3718 9.33084 9.78345 9.52796 9.14325C9.72507 8.50306 9.77656 7.82709 9.67866 7.16455C9.76945 6.50462 9.71275 5.83284 9.51261 5.19734C9.31247 4.56184 8.97384 3.97835 8.521 3.48867C8.06816 2.999 7.51231 2.61528 6.89328 2.36499C6.27426 2.1147 5.60739 2.00404 4.94044 2.04095H2.23153V12.3175Z" fill="white"/>
</svg>
