<svg width="10" height="16" viewBox="0 0 10 16" fill="none" xmlns="http://www.w3.org/2000/svg">
<path d="M0 0H2.25744V6.34157H2.43761C2.74036 5.67885 3.24067 5.12533 3.87033 4.75644C4.49999 4.38755 5.22839 4.22122 5.95629 4.28013C6.51487 4.24982 7.07328 4.34281 7.59167 4.55248C8.11006 4.76215 8.57567 5.08331 8.95527 5.49307C9.33486 5.90283 9.6191 6.39108 9.78769 6.92299C9.95628 7.45489 10.0051 8.01735 9.93058 8.57022V15.9999H7.65085V9.13049C7.65085 7.2924 6.79233 6.3615 5.18319 6.3615C4.79175 6.32949 4.39803 6.38315 4.02956 6.51874C3.6611 6.65432 3.32679 6.86855 3.05003 7.14644C2.77327 7.42432 2.56074 7.75916 2.42731 8.12752C2.29388 8.49587 2.24277 8.88885 2.27756 9.27897V15.9999H9.77617e-05L0 0Z" fill="white"/>
</svg>
