<svg width="43" height="40" viewBox="0 0 43 40" fill="none" xmlns="http://www.w3.org/2000/svg">
<path d="M35.915 15.3151C35.9411 13.2949 36.4792 11.3142 37.4793 9.55714C38.4793 7.80008 39.9088 6.32383 41.6347 5.26572C40.5383 3.70421 39.0919 2.41916 37.4103 1.51261C35.7287 0.60607 33.8583 0.103017 31.9476 0.0434048C27.8719 -0.383204 23.9207 2.47543 21.8437 2.47543C19.7266 2.47543 16.5289 0.0857607 13.0854 0.15641C10.8581 0.228169 8.68742 0.874044 6.78484 2.03111C4.88227 3.18817 3.3127 4.81696 2.22906 6.75877C-2.46501 14.8631 1.03634 26.7737 5.53287 33.3246C7.78258 36.5324 10.4118 40.1156 13.8522 39.9885C17.2188 39.8493 18.4761 37.8478 22.5399 37.8478C26.5659 37.8478 27.7456 39.9885 31.2557 39.9077C34.8682 39.8492 37.1442 36.6857 39.315 33.4475C40.9314 31.1618 42.1753 28.6357 43.0004 25.9626C40.9017 25.0774 39.1106 23.5957 37.8507 21.7023C36.5907 19.8089 35.9175 17.5875 35.915 15.3151Z" fill="white"/>
</svg>
