<svg width="11" height="12" viewBox="0 0 11 12" fill="none" xmlns="http://www.w3.org/2000/svg">
<path d="M0.0258485 5.99492C-0.0469938 5.23562 0.0401037 4.46952 0.281565 3.74576C0.523026 3.022 0.913518 2.35655 1.42799 1.7921C1.94246 1.22765 2.56955 0.77665 3.26905 0.468035C3.96855 0.159419 4.72502 0 5.48993 0C6.25483 0 7.01129 0.159419 7.71079 0.468035C8.41029 0.77665 9.03738 1.22765 9.55185 1.7921C10.0663 2.35655 10.4568 3.022 10.6983 3.74576C10.9397 4.46952 11.0269 5.23562 10.954 5.99492C11.0282 6.755 10.9422 7.52215 10.7013 8.24708C10.4605 8.97201 10.0703 9.63868 9.55566 10.2042C9.04105 10.7698 8.41349 11.2217 7.71328 11.531C7.01308 11.8403 6.25574 12.0001 5.48993 12.0001C4.72411 12.0001 3.96676 11.8403 3.26655 11.531C2.56635 11.2217 1.93878 10.7698 1.42418 10.2042C0.909578 9.63868 0.519325 8.97201 0.278503 8.24708C0.0376799 7.52215 -0.0483762 6.755 0.0258485 5.99492ZM8.60201 5.99492C8.60201 3.49042 7.47375 2.0258 5.4937 2.0258C3.50608 2.0258 2.38796 3.49042 2.38796 5.99494C2.38796 8.51951 3.50615 9.97284 5.4937 9.97284C7.47378 9.97281 8.60201 8.50945 8.60201 5.99492Z" fill="white"/>
</svg>
