<svg width="20" height="23" viewBox="0 0 20 23" fill="none" xmlns="http://www.w3.org/2000/svg">
<path d="M19.7503 15.6891C19.1457 19.6526 15.275 22.3727 10.3227 22.3727C3.95337 22.3727 0 18.1171 0 11.29C0 4.44157 3.97461 0 10.1338 0C16.1913 0 20.0007 4.14953 20.0007 10.7695V12.305H4.53671V12.5758C4.46534 13.3793 4.56621 14.1888 4.83265 14.9505C5.09909 15.7121 5.52501 16.4085 6.08208 16.9934C6.63916 17.5784 7.31464 18.0384 8.06369 18.343C8.81275 18.6476 9.61822 18.7897 10.4266 18.7601C11.4886 18.8593 12.5544 18.614 13.4654 18.0607C14.3764 17.5074 15.084 16.6756 15.4829 15.6891L19.7503 15.6891ZM4.55795 9.1728H15.5041C15.5444 8.45031 15.4346 7.7273 15.1815 7.04916C14.9283 6.37101 14.5373 5.75236 14.0331 5.23203C13.5288 4.7117 12.9221 4.30093 12.2511 4.02549C11.5801 3.75005 10.8592 3.6159 10.1338 3.63144C9.4019 3.62708 8.67642 3.7673 7.99919 4.04401C7.32196 4.32071 6.70639 4.72843 6.18801 5.24361C5.66962 5.7588 5.25868 6.37126 4.97891 7.04565C4.69913 7.72004 4.55606 8.443 4.55795 9.17282V9.1728Z" fill="white"/>
</svg>
