<svg width="11" height="12" viewBox="0 0 11 12" fill="none" xmlns="http://www.w3.org/2000/svg">
<path d="M0.025783 5.99513C-0.0470036 5.23578 0.0401573 4.46965 0.281676 3.74586C0.523195 3.02207 0.913743 2.3566 1.42827 1.79213C1.94279 1.22767 2.56994 0.776662 3.26949 0.468042C3.96904 0.159422 4.72555 0 5.4905 0C6.25545 0 7.01196 0.159422 7.71151 0.468042C8.41106 0.776662 9.0382 1.22767 9.55273 1.79213C10.0672 2.3566 10.4578 3.02207 10.6993 3.74586C10.9408 4.46965 11.028 5.23578 10.9552 5.99513C11.0293 6.75524 10.9432 7.52241 10.7023 8.24734C10.4614 8.97226 10.0711 9.63892 9.55642 10.2045C9.04176 10.77 8.41416 11.2219 7.71393 11.5312C7.0137 11.8405 6.25634 12.0002 5.4905 12.0002C4.72466 12.0002 3.96729 11.8405 3.26706 11.5312C2.56683 11.2219 1.93922 10.77 1.42457 10.2045C0.909915 9.63892 0.5196 8.97226 0.278702 8.24734C0.0378042 7.52241 -0.0483477 6.75524 0.025783 5.99513ZM8.60194 5.99513C8.60194 3.49063 7.47369 2.02602 5.49363 2.02602C3.50601 2.02602 2.3879 3.49063 2.3879 5.99516C2.3879 8.51973 3.50609 9.97305 5.49363 9.97305C7.47372 9.97303 8.60197 8.50967 8.60197 5.99513H8.60194Z" fill="white"/>
</svg>
