<svg width="10" height="12" viewBox="0 0 10 12" fill="none" xmlns="http://www.w3.org/2000/svg">
<path d="M0 0.237225H2.22771V2.09478H2.40065C2.69401 1.42761 3.18879 0.86834 3.81604 0.494906C4.44329 0.121473 5.17175 -0.0475113 5.89988 0.0115104C6.47043 -0.0312662 7.04332 0.0545202 7.57611 0.262513C8.1089 0.470505 8.58794 0.795374 8.97772 1.21305C9.36751 1.63073 9.65806 2.13051 9.82786 2.67537C9.99764 3.22022 10.0423 3.7962 9.95856 4.36061V11.9302H7.64441V4.94011C7.64441 3.061 6.82556 2.12649 5.11408 2.12649C4.72671 2.1085 4.33999 2.17425 3.98048 2.31922C3.62097 2.4642 3.29715 2.68499 3.03121 2.96644C2.76527 3.24789 2.5635 3.58336 2.43973 3.94984C2.31597 4.31633 2.27314 4.70517 2.31417 5.08971V11.9304H0V0.237225Z" fill="white"/>
</svg>
