<svg width="51" height="56" viewBox="0 0 51 56" fill="none" xmlns="http://www.w3.org/2000/svg">
<path d="M2.06051 1.95956C1.38289 2.77613 1.04146 3.8188 1.10522 4.8768V51.1271C1.04165 52.1896 1.38672 53.2363 2.07012 54.054L2.2162 54.2015L2.22965 54.1862M2.06051 1.95956L28.1972 28.002M2.06051 1.95956L2.22196 1.8043C2.82287 1.34318 3.56049 1.09442 4.31872 1.0972C5.07695 1.09997 6.41021 1.81964 6.41021 1.81964L37.0446 19.1755L37.035 19.1851M37.035 19.1851L47.2778 24.9889C50.2129 26.6392 50.2129 29.359 47.2778 31.0304L37.06 36.8227H37.0657L6.43135 54.1805C5.1916 55.1465 3.45979 55.1388 2.22965 54.1862M37.035 19.1851L28.1972 28.002M37.035 19.1851L36.9812 19.1563L36.7928 19.0509L28.1972 27.7087L2.22196 1.80622M2.22965 54.1862L28.1972 28.3144L36.7928 36.9511L37.0234 36.8457L37.0619 36.8265H37.0446L28.1972 28.002M2.22965 54.1862L2.22773 54.1881L2.0682 54.054L28.1972 28.002" stroke="white" stroke-width="1.09303"/>
</svg>
