<svg width="10" height="12" viewBox="0 0 10 12" fill="none" xmlns="http://www.w3.org/2000/svg">
<path d="M0 8.5192C0 6.43705 1.55467 5.2367 4.31431 5.0661L7.45637 4.88549V3.88707C7.45637 2.66537 6.64633 1.97552 5.0816 1.97552C3.80366 1.97552 2.91817 2.44337 2.66407 3.26118H0.447785C0.681739 1.27436 2.55591 0 5.18726 0C8.09535 0 9.73554 1.44367 9.73554 3.88707V11.7904H7.53184V10.1649H7.35071C6.98307 10.7479 6.46683 11.2233 5.85471 11.5424C5.24259 11.8615 4.55651 12.0128 3.86654 11.981C3.37959 12.0315 2.88742 11.9797 2.42178 11.8289C1.95613 11.6781 1.52735 11.4317 1.16305 11.1056C0.798758 10.7794 0.507055 10.3807 0.306732 9.93526C0.106408 9.48979 0.00191855 9.0074 0 8.5192ZM7.45637 7.53079V6.56374L4.62375 6.74436C3.02631 6.85096 2.30179 7.39282 2.30179 8.41256C2.30179 9.45362 3.20742 10.0595 4.45277 10.0595C4.81765 10.0963 5.18623 10.0595 5.53658 9.95142C5.88693 9.8433 6.2119 9.666 6.49213 9.43008C6.77236 9.19416 7.00215 8.90444 7.1678 8.57815C7.33345 8.25186 7.43158 7.89568 7.45637 7.53079Z" fill="white"/>
</svg>
