<svg width="67" height="27" viewBox="0 0 67 27" fill="none" xmlns="http://www.w3.org/2000/svg">
<path d="M47.07 25.9878L54.1587 25.9878C61.2508 25.9878 67 20.2386 67 13.1465C67 6.0545 61.2508 0.30526 54.1587 0.30526L47.07 0.30526C44.9061 0.305259 43.1519 2.05944 43.1519 4.22332L43.1519 22.0698C43.1519 24.2336 44.9061 25.9878 47.07 25.9878Z" fill="#FC6BFF"/>
<path d="M30.4145 16.8965C28.3433 16.8965 26.6643 15.2175 26.6643 13.1463C26.6643 11.0752 28.3433 9.39614 30.4145 9.39614L36.2718 9.39614C38.3429 9.39614 40.022 11.0751 40.022 13.1463C40.022 15.2175 38.3429 16.8965 36.2718 16.8965L30.4145 16.8965Z" fill="#11F1FF"/>
<path fill-rule="evenodd" clip-rule="evenodd" d="M16.8734 1.61633C19.0285 -0.538778 22.5226 -0.538778 24.6777 1.61633C26.8328 3.77144 26.8328 7.26557 24.6777 9.42068L20.9514 13.147L24.6777 16.8734C26.8328 19.0285 26.8328 22.5226 24.6777 24.6777C22.5226 26.8328 19.0285 26.8328 16.8734 24.6777L13.147 20.9514L9.42067 24.6777C7.26557 26.8328 3.77144 26.8328 1.61633 24.6777C-0.538777 22.5226 -0.538777 19.0285 1.61633 16.8734L5.34268 13.147L1.61633 9.42068C-0.538776 7.26557 -0.538776 3.77144 1.61633 1.61633C3.77144 -0.538778 7.26557 -0.538778 9.42068 1.61633L13.147 5.34268L16.8734 1.61633Z" fill="#ACFF43"/>
</svg>
