<svg width="23" height="31" viewBox="0 0 23 31" fill="none" xmlns="http://www.w3.org/2000/svg">
<path d="M4.59256 22.0637C4.92498 25.0282 7.81299 26.9747 11.7595 26.9747C15.541 26.9747 18.2616 25.0281 18.2616 22.3551C18.2616 20.0347 16.6207 18.6453 12.7355 17.6932L8.85029 16.7598C3.34544 15.4339 0.789848 12.8667 0.789848 8.70082C0.789848 3.54286 5.29748 0 11.6982 0C18.0328 0 22.3754 3.54286 22.5216 8.70082H17.9927C17.7216 5.71748 15.2486 3.91667 11.6345 3.91667C8.02036 3.91667 5.5473 5.73866 5.5473 8.39051C5.5473 10.504 7.12687 11.7476 10.9909 12.6997L14.2937 13.5084C20.4446 14.9589 23.0001 17.4228 23.0001 21.7955C23.0001 27.3883 18.5326 30.8912 11.427 30.8912C4.77872 30.8912 0.289984 27.4706 0 22.0634L4.59256 22.0637Z" fill="white"/>
</svg>
