<svg width="25" height="26" viewBox="0 0 25 26" fill="none" xmlns="http://www.w3.org/2000/svg">
<path fill-rule="evenodd" clip-rule="evenodd" d="M13.45 26C10.95 26 8.68336 25.4667 6.65002 24.4C4.65002 23.3 3.03334 21.7834 1.8 19.85C0.600002 17.8834 0 15.6 0 13C0 10.3667 0.600002 8.08335 1.8 6.15001C3.03334 4.18334 4.65002 2.66667 6.65002 1.6C8.68336 0.533333 10.95 0 13.45 0C15.7167 0 17.7167 0.466667 19.45 1.4C21.1834 2.3 22.5334 3.71667 23.5 5.65001C24.4667 7.55001 24.95 10 24.95 13C24.95 15.9667 24.4667 18.4167 23.5 20.35C22.5334 22.25 21.1834 23.6667 19.45 24.6C17.7167 25.5334 15.7167 26 13.45 26ZM18.65 18.8C17.5834 19.3334 16.3667 19.6 15 19.6C13.6334 19.6 12.4167 19.3334 11.35 18.8C10.2833 18.2334 9.43335 17.45 8.80001 16.45C8.20001 15.45 7.90001 14.3 7.90001 13C7.90001 11.6667 8.20001 10.5167 8.80001 9.55002C9.43335 8.55001 10.2833 7.78335 11.35 7.25001C12.4167 6.68334 13.6334 6.40001 15 6.40001C16.3667 6.40001 17.5834 6.68334 18.65 7.25001C19.7167 7.78335 20.55 8.55001 21.15 9.55002C21.75 10.5167 22.05 11.6667 22.05 13C22.05 14.3 21.75 15.45 21.15 16.45C20.55 17.45 19.7167 18.2334 18.65 18.8Z" fill="#D9D9D9"/>
</svg>
