<svg width="24" height="28" viewBox="0 0 24 28" fill="none" xmlns="http://www.w3.org/2000/svg">
<path d="M11.4043 27.4728C9.12317 27.4728 6.92469 27.2083 4.80886 26.6793C2.94703 26.1769 1.42864 25.5689 0.253679 24.8551C0.0173916 24.7116 -0.06452 24.4122 0.0519031 24.1614L2.1607 19.6194C2.30306 19.3128 2.68127 19.2004 2.97605 19.366C4.07474 19.9828 5.33035 20.5032 6.74286 20.9269C8.42892 21.3897 10.0819 21.6212 11.7018 21.6212C13.4871 21.6212 14.7434 21.4063 15.4707 20.9765C16.231 20.5467 16.6112 19.9516 16.6112 19.1913C16.6112 18.5631 16.3137 18.1003 15.7186 17.8027C15.1566 17.4721 14.3962 17.2242 13.4375 17.0589C12.4787 16.8936 11.4208 16.7283 10.2637 16.563C9.1397 16.3977 7.99913 16.1828 6.84204 15.9183C5.68494 15.6208 4.62702 15.191 3.66829 14.629C2.70955 14.067 1.93265 13.3066 1.33757 12.3479C0.775554 11.3891 0.494542 10.1494 0.494542 8.62863C0.494542 6.94257 0.973913 5.45488 1.93265 4.16554C2.92445 2.87621 4.34602 1.86788 6.19737 1.14057C8.04872 0.38019 10.2637 0 12.8424 0C14.6607 0 16.5121 0.198359 18.3965 0.595076C20.0673 0.946837 21.4913 1.44155 22.6683 2.07922C22.9214 2.21636 23.0149 2.52849 22.8927 2.78919L20.7915 7.27451C20.6506 7.57519 20.2819 7.68832 19.989 7.53185C18.8753 6.93686 17.7494 6.52554 16.6112 6.29791C15.3219 6.00037 14.0656 5.8516 12.8424 5.8516C11.1233 5.8516 9.86701 6.08302 9.07358 6.54585C8.28014 7.00869 7.88342 7.60377 7.88342 8.33109C7.88342 8.99229 8.16443 9.48819 8.72645 9.81878C9.32153 10.1494 10.0984 10.4139 11.0572 10.6122C12.0159 10.8106 13.0573 10.9924 14.1813 11.1577C15.3384 11.2899 16.4955 11.5048 17.6526 11.8024C18.8097 12.0999 19.8511 12.5297 20.7768 13.0917C21.7355 13.6207 22.5124 14.3645 23.1075 15.3233C23.7026 16.2489 24.0001 17.4721 24.0001 18.9929C24.0001 20.6459 23.5042 22.1171 22.5124 23.4064C21.5206 24.6627 20.0825 25.6545 18.1981 26.3818C16.3468 27.1091 14.0822 27.4728 11.4043 27.4728Z" fill="white"/>
</svg>
