<svg width="11" height="16" viewBox="0 0 11 16" fill="none" xmlns="http://www.w3.org/2000/svg">
<path d="M0 10.1194C0 6.52643 1.85227 4.25026 4.73326 4.25026C5.44589 4.21752 6.15316 4.38773 6.77237 4.74099C7.39159 5.09426 7.89717 5.61599 8.23003 6.24519H8.39821V0H10.6486V15.8098H8.49219V14.0133H8.31413C7.95554 14.6382 7.43233 15.1535 6.80114 15.5032C6.16996 15.8529 5.45485 16.0237 4.73328 15.9972C1.83248 15.9973 0 13.7211 0 10.1194ZM2.32467 10.1194C2.32467 12.5312 3.46472 13.9825 5.37138 13.9825C7.26809 13.9825 8.44031 12.5103 8.44031 10.1293C8.44031 7.75945 7.25578 6.26625 5.37138 6.26625C3.477 6.26625 2.32459 7.72738 2.32459 10.1194H2.32467Z" fill="white"/>
</svg>
