<svg width="12" height="22" viewBox="0 0 12 22" fill="none" xmlns="http://www.w3.org/2000/svg">
<path d="M1.83954e-05 0.231578H4.27364V3.93672H4.37732C4.66646 2.77953 5.34629 1.75687 6.30251 1.04064C7.25873 0.324414 8.43306 -0.0417207 9.62811 0.00378305C10.1445 0.00198513 10.6594 0.0579113 11.1633 0.170506V4.34998C10.5114 4.15134 9.83139 4.06014 9.15003 4.07997C8.49908 4.05364 7.85013 4.16809 7.24772 4.41547C6.64532 4.66284 6.10373 5.03729 5.66014 5.51309C5.21656 5.98889 4.88149 6.55479 4.67792 7.17192C4.47435 7.78905 4.40711 8.4428 4.48083 9.08829V22.0001H0L1.83954e-05 0.231578Z" fill="white"/>
</svg>
