<svg width="23" height="23" viewBox="0 0 23 23" fill="none" xmlns="http://www.w3.org/2000/svg">
<path d="M13.6746 0C15.4589 0 17.048 0.362427 18.4419 1.08728C19.8637 1.78425 20.9789 2.87153 21.7874 4.34911C22.5959 5.79882 23.0001 7.66671 23.0001 9.95278V22.358C23.0001 22.6203 22.7875 22.8329 22.5253 22.8329H16.9513C16.6891 22.8329 16.4765 22.6203 16.4765 22.358V10.9564C16.4765 9.1443 16.0722 7.8061 15.2637 6.94186C14.4831 6.07761 13.368 5.64549 11.9183 5.64549C10.8867 5.64549 9.95278 5.86852 9.11642 6.31458C8.30793 6.73277 7.6667 7.38792 7.19276 8.28005C6.7467 9.17217 6.52368 10.3152 6.52368 11.7092V22.358C6.52368 22.6203 6.31107 22.8329 6.04881 22.8329H0.474867C0.212606 22.8329 0 22.6203 0 22.358V0.809413C0 0.547152 0.212605 0.334546 0.474867 0.334546H5.75608C6.01834 0.334546 6.23094 0.547151 6.23094 0.809413V3.00687C6.8764 2.28761 7.64307 1.68956 8.53096 1.21273C10.0364 0.404244 11.751 0 13.6746 0Z" fill="black"/>
</svg>
