<svg width="29" height="29" viewBox="0 0 29 29" fill="none" xmlns="http://www.w3.org/2000/svg">
<path d="M0.467752 28.8344C0.20942 28.8344 0 28.6249 0 28.3666V0.467753C0 0.20942 0.20942 0 0.467753 0H13.099C16.2296 0 18.9895 0.604149 21.3786 1.81245C23.7678 2.99328 25.6351 4.65469 26.9807 6.79667C28.3263 8.93865 28.9991 11.4788 28.9991 14.4172C28.9991 17.3281 28.3263 19.8683 26.9807 22.0377C25.6351 24.1797 23.7678 25.8548 21.3786 27.0631C18.9895 28.2439 16.2296 28.8344 13.099 28.8344H0.467752ZM6.67309 23.3558H12.7695C14.6918 23.3558 16.3532 22.9988 17.7537 22.2848C19.1817 21.5434 20.2802 20.4999 21.0491 19.1543C21.8455 17.8087 22.2437 16.2296 22.2437 14.4172C22.2437 12.5773 21.8455 10.9983 21.0491 9.68011C20.2802 8.33451 19.1817 7.30471 17.7537 6.59071C16.3532 5.84926 14.6918 5.47853 12.7695 5.47853H6.67309V23.3558Z" fill="black"/>
</svg>
