<svg width="21" height="21" viewBox="0 0 21 21" fill="none" xmlns="http://www.w3.org/2000/svg">
<path fill-rule="evenodd" clip-rule="evenodd" d="M10.8636 21.0002C8.84431 21.0002 7.01353 20.5694 5.37121 19.7079C3.75581 18.8194 2.45002 17.5944 1.45386 16.0328C0.48462 14.4444 0 12.6001 0 10.5001C0 8.37315 0.48462 6.52891 1.45386 4.96735C2.45002 3.37888 3.75581 2.15386 5.37121 1.29232C7.01353 0.430772 8.84431 0 10.8636 0C12.6943 0 14.3097 0.376926 15.7098 1.13078C17.1098 1.85771 18.2002 3.00195 18.9809 4.5635C19.7617 6.09813 20.1521 8.077 20.1521 10.5001C20.1521 12.8963 19.7617 14.8751 18.9809 16.4367C18.2002 17.9713 17.1098 19.1156 15.7098 19.8694C14.3097 20.6233 12.6943 21.0002 10.8636 21.0002ZM15.0636 15.1848C14.2021 15.6155 13.2194 15.8309 12.1155 15.8309C11.0116 15.8309 10.0289 15.6155 9.16739 15.1848C8.30584 14.7271 7.6193 14.0944 7.10776 13.2867C6.62314 12.479 6.38083 11.5501 6.38083 10.5001C6.38083 9.42316 6.62314 8.49431 7.10776 7.71353C7.6193 6.90583 8.30584 6.2866 9.16739 5.85582C10.0289 5.39813 11.0116 5.16928 12.1155 5.16928C13.2194 5.16928 14.2021 5.39813 15.0636 5.85582C15.9252 6.2866 16.5982 6.90583 17.0829 7.71353C17.5675 8.49431 17.8098 9.42316 17.8098 10.5001C17.8098 11.5501 17.5675 12.479 17.0829 13.2867C16.5982 14.0944 15.9252 14.7271 15.0636 15.1848Z" fill="#D9D9D9"/>
</svg>
