<svg width="8" height="32" viewBox="0 0 8 32" fill="none" xmlns="http://www.w3.org/2000/svg">
<path d="M1.23428 32.0001C0.979282 32.0001 0.772562 31.7934 0.772562 31.5384V10.5863C0.772562 10.3313 0.979282 10.1246 1.23428 10.1246H6.65394C6.90894 10.1246 7.11566 10.3313 7.11566 10.5863V31.5384C7.11566 31.7934 6.90894 32.0001 6.65394 32.0001H1.23428ZM3.94411 7.07499C2.7785 7.07499 1.82974 6.73615 1.09784 6.05847C0.365948 5.38079 0 4.54046 0 3.5375C0 2.53453 0.365948 1.6942 1.09784 1.01652C1.82974 0.338841 2.7785 0 3.94411 0C5.10972 0 6.05847 0.325288 6.79036 0.975863C7.52226 1.59933 7.88821 2.41255 7.88821 3.41552C7.88821 4.4727 7.52226 5.35368 6.79036 6.05847C6.08558 6.73615 5.13683 7.07499 3.94411 7.07499Z" fill="black"/>
</svg>
