<svg width="80" height="80" viewBox="0 0 80 80" fill="none" xmlns="http://www.w3.org/2000/svg">
<g clip-path="url(#clip0_10_577)">
<path d="M48.8364 38.416C50.4103 39.3597 50.4103 41.6406 48.8364 42.5843L35.7427 50.4347C34.1231 51.4057 32.0632 50.239 32.0632 48.3505L32.0632 32.6498C32.0632 30.7613 34.1231 29.5946 35.7427 30.5657L48.8364 38.416Z" fill="#F9FAFB"/>
<path d="M70 38.3333V20.0833C70 16.3554 66.9779 13.3333 63.25 13.3333H16.75C13.0221 13.3333 10 16.3554 10 20.0833V59.9167C10 63.6446 13.0221 66.6667 16.75 66.6667H45" stroke="#F9FAFB" stroke-width="2.53125" stroke-linecap="round" stroke-linejoin="round"/>
<path fill-rule="evenodd" clip-rule="evenodd" d="M72.8272 47.3068C70.8408 45.3203 67.6201 45.3203 65.6337 47.3068L53.6238 59.3167C51.6373 61.3031 51.6373 64.5238 53.6238 66.5102L59.27 72.1565C61.2565 74.1429 64.4771 74.1429 66.4636 72.1565L78.4735 60.1466C80.4599 58.1601 80.4599 54.9394 78.4735 52.953L72.8272 47.3068ZM68.7361 50.4092C69.0091 50.1362 69.4518 50.1362 69.7248 50.4092L75.3711 56.0554C75.6441 56.3285 75.6441 56.7711 75.3711 57.0441L68.4306 63.9845L61.7957 57.3496L68.7361 50.4092ZM58.6933 60.452L56.7262 62.4191C56.4532 62.6921 56.4532 63.1348 56.7262 63.4078L62.3725 69.054C62.6455 69.3271 63.0881 69.3271 63.3611 69.054L65.3282 67.087L58.6933 60.452Z" fill="#F9FAFB"/>
</g>
<defs>
<clipPath id="clip0_10_577">
<rect width="40" height="40" fill="white" transform="scale(2)"/>
</clipPath>
</defs>
</svg>
