<svg width="80" height="80" viewBox="0 0 80 80" fill="none" xmlns="http://www.w3.org/2000/svg">
<g clip-path="url(#clip0_10_603)">
<path d="M48.8364 38.4161C50.4103 39.3598 50.4103 41.6407 48.8364 42.5843L35.7427 50.4347C34.1231 51.4058 32.0632 50.2391 32.0632 48.3506L32.0632 32.6498C32.0632 30.7614 34.1231 29.5946 35.7427 30.5657L48.8364 38.4161Z" fill="#F9FAFB"/>
<path d="M70 38.3331V20.0831C70 16.3552 66.9779 13.3331 63.25 13.3331H16.75C13.0221 13.3331 10 16.3552 10 20.0831V59.9165C10 63.6444 13.0221 66.6665 16.75 66.6665H45" stroke="#F9FAFB" stroke-width="2.53125" stroke-linecap="round" stroke-linejoin="round"/>
<path fill-rule="evenodd" clip-rule="evenodd" d="M72.8272 47.307C70.8408 45.3205 67.6201 45.3205 65.6337 47.307L53.6238 59.3169C51.6373 61.3033 51.6373 64.524 53.6238 66.5104L59.27 72.1567C61.2565 74.1431 64.4771 74.1431 66.4636 72.1567L78.4735 60.1468C80.4599 58.1603 80.4599 54.9397 78.4735 52.9532L72.8272 47.307ZM68.7361 50.4094C69.0091 50.1364 69.4518 50.1364 69.7248 50.4094L75.3711 56.0556C75.6441 56.3287 75.6441 56.7713 75.3711 57.0443L68.4304 63.985L61.7955 57.35L68.7361 50.4094ZM58.6931 60.4525L56.7262 62.4193C56.4532 62.6923 56.4532 63.135 56.7262 63.408L62.3725 69.0542C62.6455 69.3273 63.0881 69.3273 63.3611 69.0543L65.328 67.0874L58.6931 60.4525Z" fill="#F9FAFB"/>
</g>
<defs>
<clipPath id="clip0_10_603">
<rect width="40" height="40" fill="white" transform="scale(2)"/>
</clipPath>
</defs>
</svg>
