<svg width="28" height="28" viewBox="0 0 28 28" fill="none" xmlns="http://www.w3.org/2000/svg">
<path fill-rule="evenodd" clip-rule="evenodd" d="M20.8193 1.49897C18.8207 -0.499644 15.5803 -0.499653 13.5817 1.49897L1.49814 13.5825C-0.500479 15.5811 -0.500473 18.8215 1.49815 20.8202L7.17899 26.501C9.17761 28.4996 12.418 28.4996 14.4166 26.501L26.5002 14.4175C28.4988 12.4188 28.4988 9.17844 26.5002 7.17982L20.8193 1.49897ZM16.7031 4.62042C16.9778 4.34573 17.4232 4.34573 17.6979 4.62042L23.3787 10.3013C23.6534 10.576 23.6534 11.0213 23.3787 11.296L16.3958 18.279L9.72016 11.6034L16.7031 4.62042ZM6.59871 14.7248L4.61959 16.704C4.3449 16.9786 4.3449 17.424 4.61959 17.6987L10.3004 23.3796C10.5751 23.6542 11.0205 23.6542 11.2952 23.3796L13.2743 21.4004L6.59871 14.7248Z" fill="#F9FAFB"/>
</svg>
