<svg width="27" height="27" viewBox="0 0 27 27" fill="none" xmlns="http://www.w3.org/2000/svg">
<path d="M16.0523 0C18.1468 0 20.0122 0.425445 21.6486 1.27633C23.3176 2.09449 24.6267 3.37083 25.5757 5.10533C26.5248 6.80711 26.9993 8.99978 26.9993 11.6834V26.2456C26.9993 26.5534 26.7498 26.803 26.4419 26.803H19.8988C19.5909 26.803 19.3413 26.5534 19.3413 26.2456V12.8615C19.3413 10.7343 18.8668 9.16341 17.9177 8.14889C17.0014 7.13437 15.6924 6.62711 13.9906 6.62711C12.7797 6.62711 11.6834 6.88892 10.7016 7.41255C9.75249 7.90344 8.99977 8.67252 8.44342 9.71976C7.9198 10.767 7.658 12.1088 7.658 13.7451V26.2456C7.658 26.5534 7.40843 26.803 7.10056 26.803H0.557435C0.249572 26.803 0 26.5534 0 26.2456V0.950151C0 0.642288 0.249572 0.392717 0.557435 0.392717H6.75693C7.06479 0.392717 7.31437 0.642289 7.31437 0.950152V3.5297C8.07205 2.68537 8.97204 1.98334 10.0143 1.4236C11.7815 0.474534 13.7942 0 16.0523 0Z" fill="white"/>
</svg>
