<svg width="35" height="35" viewBox="0 0 35 35" fill="none" xmlns="http://www.w3.org/2000/svg">
<path d="M0.56454 34.8008C0.252753 34.8008 0 34.548 0 34.2362V0.56454C0 0.252753 0.252753 0 0.56454 0H15.8095C19.5879 0 22.9188 0.72916 25.8023 2.18748C28.6858 3.61265 30.9395 5.61784 32.5636 8.20304C34.1876 10.7882 34.9996 13.854 34.9996 17.4004C34.9996 20.9136 34.1876 23.9794 32.5636 26.5977C30.9395 29.1829 28.6858 31.2047 25.8023 32.663C22.9188 34.0882 19.5879 34.8008 15.8095 34.8008H0.56454ZM8.05389 28.1886H15.4118C17.7318 28.1886 19.737 27.7578 21.4273 26.896C23.1508 26.0011 24.4765 24.7417 25.4046 23.1177C26.3657 21.4936 26.8463 19.5879 26.8463 17.4004C26.8463 15.1798 26.3657 13.274 25.4046 11.6831C24.4765 10.0591 23.1508 8.8162 21.4273 7.95446C19.737 7.05959 17.7318 6.61215 15.4118 6.61215H8.05389V28.1886Z" fill="white"/>
</svg>
