<svg width="28" height="37" viewBox="0 0 28 37" fill="none" xmlns="http://www.w3.org/2000/svg">
<path d="M12.9737 36.8212C10.4526 36.8212 8.01441 36.506 5.65918 35.8757C3.52369 35.3266 1.71086 34.511 0.220659 33.4288C-0.00349488 33.266 -0.0639757 32.961 0.0701914 32.7186L2.59343 28.1605C2.76455 27.8514 3.17401 27.7741 3.46187 27.979C4.4944 28.7139 5.741 29.306 7.2017 29.7555C8.95982 30.3194 10.6848 30.6014 12.3766 30.6014C15.1299 30.6014 17.1202 29.9877 18.3476 28.7603C19.6081 27.5329 20.2384 25.7085 20.2384 23.2869V19.2565L20.736 12.5391L20.6364 5.77197V0.565027C20.6364 0.252971 20.8894 0 21.2015 0H27.4356C27.7477 0 28.0007 0.252971 28.0007 0.565028V22.2917C28.0007 27.2676 26.707 30.9331 24.1195 33.2883C21.5321 35.6435 17.8168 36.8212 12.9737 36.8212Z" fill="black"/>
</svg>
