<svg width="226" height="54" viewBox="0 0 226 54" fill="none" xmlns="http://www.w3.org/2000/svg">
<g clip-path="url(#clip0_0_138)">
<path d="M214.907 16.8681C216.999 16.8681 218.863 17.2931 220.497 18.1432C222.165 18.9606 223.473 20.2357 224.421 21.9685C225.369 23.6687 225.843 25.8593 225.843 28.5403V43.0885C225.843 43.3961 225.594 43.6454 225.286 43.6454H218.749C218.442 43.6454 218.192 43.3961 218.192 43.0885V29.7173C218.192 27.5921 217.718 26.0227 216.77 25.0092C215.855 23.9956 214.547 23.4889 212.847 23.4889C211.637 23.4889 210.542 23.7504 209.561 24.2735C208.613 24.764 207.861 25.5323 207.305 26.5785C206.782 27.6248 206.52 28.9653 206.52 30.6V43.0885C206.52 43.3961 206.271 43.6454 205.963 43.6454H199.427C199.119 43.6454 198.87 43.3961 198.87 43.0885V17.8173C198.87 17.5098 199.119 17.2604 199.427 17.2604H205.62C205.928 17.2604 206.177 17.5098 206.177 17.8173V20.3944C206.934 19.5509 207.833 18.8495 208.874 18.2903C210.64 17.3422 212.651 16.8681 214.907 16.8681Z" fill="white"/>
<path fill-rule="evenodd" clip-rule="evenodd" d="M169.58 40.8009C171.575 41.8472 173.798 42.3703 176.25 42.3703C178.474 42.3703 180.435 41.9125 182.135 40.9971C183.065 40.4964 183.883 39.8539 184.588 39.0696V40.2112C184.588 42.5979 183.966 44.3961 182.724 45.6059C181.514 46.8156 179.553 47.4204 176.839 47.4204C175.171 47.4204 173.471 47.1425 171.738 46.5867C170.299 46.1437 169.07 45.5601 168.052 44.8358C167.769 44.6338 167.365 44.71 167.196 45.0147L164.709 49.5073C164.577 49.7461 164.637 50.0467 164.858 50.2072C166.327 51.2738 168.113 52.0777 170.218 52.6189C172.539 53.2402 174.943 53.5508 177.427 53.5508C182.201 53.5508 185.863 52.3901 188.413 50.0687C190.963 47.7474 192.238 44.1346 192.238 39.2303V17.8161C192.238 17.5085 191.989 17.2592 191.681 17.2592H185.537C185.229 17.2592 184.98 17.5085 184.98 17.8161V20.6124C184.191 19.6069 183.243 18.8165 182.135 18.2413C180.435 17.3258 178.474 16.8681 176.25 16.8681C173.798 16.8681 171.575 17.3912 169.58 18.4375C167.619 19.4837 166.033 20.9713 164.823 22.9003C163.646 24.7967 163.058 27.0363 163.058 29.6192C163.058 32.1694 163.646 34.409 164.823 36.338C166.033 38.2343 167.619 39.722 169.58 40.8009ZM177.771 36.0928C179.111 36.0928 180.304 35.8313 181.351 35.3081C182.397 34.7523 183.214 33.984 183.803 33.0031C184.391 32.0223 184.686 30.8943 184.686 29.6192C184.686 28.3114 184.391 27.1834 183.803 26.2352C183.214 25.2544 182.397 24.5024 181.351 23.9793C180.304 23.4235 179.111 23.1456 177.771 23.1456C176.43 23.1456 175.237 23.4235 174.19 23.9793C173.144 24.5024 172.311 25.2544 171.689 26.2352C171.101 27.1834 170.807 28.3114 170.807 29.6192C170.807 30.8943 171.101 32.0223 171.689 33.0031C172.311 33.984 173.144 34.7523 174.19 35.3081C175.237 35.8313 176.43 36.0928 177.771 36.0928Z" fill="white"/>
<path d="M151.317 43.6464C151.01 43.6464 150.76 43.3971 150.76 43.0895V17.8184C150.76 17.5108 151.01 17.2615 151.317 17.2615H157.854C158.162 17.2615 158.411 17.5108 158.411 17.8184V43.0895C158.411 43.3971 158.162 43.6464 157.854 43.6464H151.317ZM154.586 13.5833C153.18 13.5833 152.036 13.1746 151.153 12.3572C150.27 11.5398 149.829 10.5263 149.829 9.31654C149.829 8.10682 150.27 7.09328 151.153 6.2759C152.036 5.45852 153.18 5.04983 154.586 5.04983C155.992 5.04983 157.136 5.44217 158.019 6.22686C158.901 6.97885 159.343 7.9597 159.343 9.16942C159.343 10.4445 158.901 11.5071 158.019 12.3572C157.169 13.1746 156.024 13.5833 154.586 13.5833Z" fill="white"/>
<path d="M134.072 44.0377C131.816 44.0377 129.642 43.7762 127.55 43.253C125.708 42.7562 124.207 42.1548 123.045 41.449C122.811 41.307 122.73 41.0109 122.845 40.7629L124.931 36.271C125.072 35.9678 125.446 35.8567 125.737 36.0204C126.824 36.6304 128.065 37.145 129.462 37.5641C131.13 38.0218 132.765 38.2507 134.367 38.2507C136.132 38.2507 137.375 38.0382 138.094 37.6131C138.846 37.1881 139.222 36.5996 139.222 35.8476C139.222 35.2264 138.928 34.7687 138.339 34.4744C137.783 34.1475 137.031 33.9022 136.083 33.7388C135.135 33.5753 134.089 33.4118 132.944 33.2483C131.833 33.0849 130.705 32.8724 129.56 32.6108C128.416 32.3165 127.37 31.8915 126.422 31.3357C125.474 30.7799 124.705 30.0279 124.117 29.0797C123.561 28.1316 123.283 26.9055 123.283 25.4015C123.283 23.7341 123.757 22.2628 124.705 20.9877C125.686 19.7126 127.092 18.7154 128.923 17.9961C130.754 17.2441 132.944 16.8681 135.495 16.8681C137.293 16.8681 139.124 17.0643 140.987 17.4566C142.64 17.8045 144.048 18.2937 145.212 18.9244C145.462 19.06 145.555 19.3687 145.434 19.6265L143.356 24.0623C143.217 24.3597 142.852 24.4716 142.562 24.3168C141.461 23.7284 140.348 23.3216 139.222 23.0965C137.947 22.8023 136.704 22.6551 135.495 22.6551C133.794 22.6551 132.552 22.884 131.767 23.3417C130.983 23.7995 130.59 24.388 130.59 25.1073C130.59 25.7612 130.868 26.2516 131.424 26.5785C132.013 26.9055 132.781 27.1671 133.729 27.3632C134.677 27.5594 135.707 27.7392 136.819 27.9027C137.963 28.0335 139.107 28.246 140.252 28.5403C141.396 28.8345 142.426 29.2595 143.341 29.8154C144.29 30.3385 145.058 31.0741 145.646 32.0223C146.235 32.9377 146.529 34.1475 146.529 35.6514C146.529 37.2862 146.039 38.7411 145.058 40.0162C144.077 41.2586 142.655 42.2395 140.791 42.9588C138.96 43.6781 136.721 44.0377 134.072 44.0377Z" fill="white"/>
<path fill-rule="evenodd" clip-rule="evenodd" d="M107.401 44.1803C104.393 44.1803 101.744 43.5918 99.4557 42.4148C97.1997 41.2378 95.4506 39.6357 94.2081 37.6086C92.9657 35.5488 92.3445 33.2111 92.3445 30.5955C92.3445 27.9472 92.9494 25.6095 94.1591 23.5824C95.4015 21.5226 97.0853 19.9206 99.2105 18.7762C101.336 17.5992 103.739 17.0107 106.42 17.0107C109.003 17.0107 111.324 17.5665 113.384 18.6782C115.476 19.7571 117.127 21.3265 118.337 23.3862C119.547 25.4133 120.152 27.8491 120.152 30.6936C120.152 30.9879 120.135 31.3312 120.103 31.7235C120.086 31.9037 120.07 32.0798 120.054 32.2518C120.026 32.5366 119.787 32.7534 119.501 32.7534H100.041C100.195 33.4558 100.442 34.1097 100.78 34.7151C101.434 35.794 102.333 36.6278 103.477 37.2163C104.654 37.7721 106.027 38.05 107.597 38.05C109.003 38.05 110.229 37.8375 111.275 37.4124C112.185 37.0538 113.026 36.5439 113.797 35.8826C114.034 35.6793 114.392 35.6885 114.603 35.9181L117.948 39.5446C118.141 39.7543 118.146 40.0773 117.948 40.2829C116.797 41.4787 115.39 42.4182 113.727 43.1014C111.896 43.8207 109.787 44.1803 107.401 44.1803ZM109.902 23.6805C110.883 24.2363 111.651 25.021 112.207 26.0346C112.576 26.7073 112.822 27.4593 112.946 28.2905H99.953C100.08 27.4732 100.323 26.7376 100.682 26.0836C101.238 25.0374 102.006 24.2363 102.987 23.6805C104 23.092 105.161 22.7977 106.469 22.7977C107.777 22.7977 108.921 23.092 109.902 23.6805Z" fill="white"/>
<path d="M55.8159 43.6467C55.5084 43.6467 55.259 43.3973 55.259 43.0898V9.87369C55.259 9.56613 55.5084 9.31679 55.8159 9.31679H70.8546C74.5818 9.31679 77.8677 10.0361 80.7122 11.4747C83.5566 12.8806 85.7799 14.8586 87.382 17.4088C88.984 19.9591 89.7851 22.9833 89.7851 26.4817C89.7851 29.9474 88.984 32.9717 87.382 35.5546C85.7799 38.1048 83.5566 40.0992 80.7122 41.5378C77.8677 42.9437 74.5818 43.6467 70.8546 43.6467H55.8159ZM63.2039 37.124H70.4623C72.7509 37.124 74.729 36.6989 76.3964 35.8489C78.0966 34.9661 79.4044 33.7237 80.3198 32.1216C81.268 30.5196 81.7421 28.6396 81.7421 26.4817C81.7421 24.2912 81.268 22.4112 80.3198 20.8418C79.4044 19.2398 78.0966 18.0137 76.3964 17.1636C74.729 16.2809 72.7509 15.8395 70.4623 15.8395H63.2039V37.124Z" fill="white"/>
<path d="M35.8686 29.5461C35.561 29.5461 35.3117 29.2968 35.3117 28.9892V23.9727C35.3117 23.6651 35.561 23.4158 35.8686 23.4158H48.6339C48.9414 23.4158 49.1908 23.6651 49.1908 23.9727V28.9892C49.1908 29.2968 48.9414 29.5461 48.6339 29.5461H35.8686Z" fill="white"/>
<path fill-rule="evenodd" clip-rule="evenodd" d="M16.9746 20.4312L9.27007 9.55184C9.16566 9.40442 8.99624 9.31679 8.81559 9.31679H1.16224C0.709209 9.31679 0.44574 9.82891 0.709143 10.1975L12.1211 26.1663L0.0836417 42.7628C-0.183395 43.131 0.0796322 43.6467 0.53445 43.6467H8.27059C8.45451 43.6467 8.62657 43.5558 8.73035 43.404L16.7187 31.7166L24.8273 43.4071C24.9314 43.5572 25.1023 43.6467 25.2849 43.6467H33.0759C33.5301 43.6467 33.7933 43.1322 33.5276 42.7639L21.3579 25.895L32.6933 10.1998C32.9593 9.83146 32.6962 9.31679 32.2419 9.31679H24.9907C24.8083 9.31679 24.6375 9.4061 24.5334 9.55586L16.9746 20.4312Z" fill="white"/>
</g>
<defs>
<clipPath id="clip0_0_138">
<rect width="112.978" height="26.7259" fill="white" transform="scale(2.0004)"/>
</clipPath>
</defs>
</svg>
