<svg width="28" height="28" viewBox="0 0 28 28" fill="none" xmlns="http://www.w3.org/2000/svg">
<path fill-rule="evenodd" clip-rule="evenodd" d="M15.161 27.3589C12.1321 27.3589 9.46532 26.7663 7.16072 25.5811C4.88904 24.3958 3.12767 22.7826 1.8766 20.7414C0.625529 18.6673 0 16.3133 0 13.6794C0 11.0127 0.60907 8.65871 1.82722 6.61749C3.07828 4.54335 4.77381 2.93013 6.91379 1.77783C9.05378 0.592611 11.4736 0 14.1733 0C16.7742 0 19.1117 0.559689 21.1859 1.67907C23.2929 2.76552 24.9555 4.34581 26.1737 6.41995C27.3918 8.46117 28.0009 10.9139 28.0009 13.7782C28.0009 14.0745 27.9844 14.4202 27.9515 14.8153C27.935 14.9967 27.9185 15.1741 27.902 15.3473C27.8747 15.6341 27.6333 15.8524 27.3452 15.8524H7.75037C7.90551 16.5596 8.15342 17.2181 8.4941 17.8277C9.15255 18.9142 10.0579 19.7537 11.2102 20.3463C12.3955 20.906 13.7782 21.1859 15.3585 21.1859C16.7742 21.1859 18.0088 20.9719 19.0623 20.5439C19.979 20.1827 20.8255 19.6692 21.6015 19.0034C21.8402 18.7986 22.2007 18.8079 22.4138 19.0391L25.7816 22.6909C25.9763 22.902 25.9811 23.2273 25.7819 23.4343C24.6233 24.6385 23.2065 25.5845 21.5315 26.2724C19.6879 26.9967 17.5643 27.3589 15.161 27.3589ZM17.6796 6.71626C18.6673 7.27595 19.4409 8.0661 20.0006 9.0867C20.3721 9.76415 20.6203 10.5214 20.7452 11.3584H7.66145C7.78957 10.5354 8.0342 9.79461 8.39532 9.13609C8.95501 8.08256 9.72869 7.27595 10.7164 6.71626C11.737 6.12365 12.9058 5.82734 14.2227 5.82734C15.5396 5.82734 16.6919 6.12365 17.6796 6.71626Z" fill="white"/>
</svg>
