<svg width="78" height="78" viewBox="0 0 78 78" fill="none" xmlns="http://www.w3.org/2000/svg">
<g clip-path="url(#clip0_0_130)">
<path d="M26.3829 0H51.6019C60.5354 0 63.043 0 66.8881 1.29492C69.1383 2.11884 71.1818 3.42344 72.8762 5.11785C74.5706 6.81226 75.8752 8.85573 76.6991 11.1059C78.0001 14.948 78.0001 17.4586 78.0001 26.3921V51.608C78.0001 60.5445 78.0001 63.0491 76.7082 66.8973C75.8834 69.1469 74.5785 71.1899 72.8842 72.8842C71.1899 74.5785 69.1469 75.8834 66.8973 76.7082C63.0521 78.0001 60.5445 78.0001 51.6111 78.0001H26.3829C17.4495 78.0001 14.9419 78.0001 11.0967 76.7082C8.84709 75.8834 6.8041 74.5785 5.10981 72.8842C3.41552 71.1899 2.1106 69.1469 1.28577 66.8973C-8.86248e-06 63.0491 0 60.5445 0 51.608V26.3921C0 17.4586 0 14.951 1.29492 11.1059C2.11884 8.85573 3.42345 6.81226 5.11786 5.11785C6.81227 3.42344 8.85573 2.11884 11.1059 1.29492C14.9297 0 17.4495 0 26.3829 0Z" fill="black"/>
<path d="M26.3829 1.00324H51.6019C60.5711 1.00324 62.9042 1.01365 66.5554 2.24148C68.6638 3.0155 70.5786 4.23904 72.1668 5.82725C73.7551 7.41559 74.9787 9.33054 75.7527 11.4391C76.9863 15.087 76.9969 17.4217 76.9969 26.3921V51.608C76.9969 60.5795 76.9865 62.9105 75.7616 66.5648C74.9866 68.6726 73.7628 70.5868 72.1748 72.1748C70.5867 73.7628 68.6725 74.9867 66.5647 75.7616C62.9135 76.9865 60.5798 76.9969 51.6111 76.9969H26.3829C17.4143 76.9969 15.0805 76.9865 11.4293 75.7616C9.32148 74.9867 7.40725 73.7628 5.81921 72.1748C4.23134 70.5869 3.0076 68.673 2.23267 66.5655C1.01348 62.9108 1.00324 60.5787 1.00324 51.608V26.3921C1.00324 17.4229 1.01365 15.0898 2.24148 11.4386C3.01549 9.33023 4.23905 7.41546 5.82726 5.82725C7.41567 4.23884 9.3307 3.01519 11.4394 2.24119C15.0687 1.01383 17.4121 1.00324 26.3829 1.00324Z" stroke="white" stroke-opacity="0.19"/>
<path d="M52.5231 51.7216L59.5873 51.7216C66.6548 51.7216 72.3842 45.9923 72.3842 38.9247C72.3842 31.8572 66.6548 26.1279 59.5873 26.1279L52.5231 26.1279C50.3667 26.1279 48.6185 27.876 48.6185 30.0324L48.6185 47.8171C48.6185 49.9735 50.3667 51.7216 52.5231 51.7216Z" fill="#FC6BFF"/>
<path d="M35.9252 42.6617C33.8612 42.6617 32.188 40.9885 32.188 38.9245C32.188 36.8605 33.8612 35.1873 35.9252 35.1873L41.7622 35.1873C43.8262 35.1873 45.4994 36.8605 45.4994 38.9245C45.4994 40.9885 43.8262 42.6617 41.7622 42.6617L35.9252 42.6617Z" fill="#11F1FF"/>
<path fill-rule="evenodd" clip-rule="evenodd" d="M22.4308 27.4344C24.5785 25.2867 28.0605 25.2867 30.2082 27.4344C32.3559 29.5821 32.3559 33.0641 30.2082 35.2118L26.4947 38.9252L30.2082 42.6387C32.3559 44.7864 32.3559 48.2684 30.2082 50.4161C28.0606 52.5637 24.5785 52.5637 22.4308 50.4161L18.7174 46.7026L15.0039 50.4161C12.8562 52.5637 9.3742 52.5637 7.22654 50.4161C5.07888 48.2684 5.07888 44.7864 7.22654 42.6387L10.94 38.9252L7.22654 35.2118C5.07888 33.0641 5.07888 29.5821 7.22654 27.4344C9.3742 25.2867 12.8562 25.2867 15.0039 27.4344L18.7174 31.1479L22.4308 27.4344Z" fill="#ACFF43"/>
</g>
<defs>
<clipPath id="clip0_0_130">
<rect width="38.8741" height="38.8741" fill="white" transform="scale(2.00648)"/>
</clipPath>
</defs>
</svg>
