<svg width="78" height="78" viewBox="0 0 78 78" fill="none" xmlns="http://www.w3.org/2000/svg">
<path d="M26.3829 0H51.6019C60.5353 0 63.0429 0 66.888 1.29492C69.1382 2.11884 71.1816 3.42344 72.8761 5.11784C74.5705 6.81225 75.875 8.85571 76.699 11.1059C78 14.948 78 17.4586 78 26.392V51.608C78 60.5444 78 63.049 76.7081 66.8972C75.8833 69.1468 74.5784 71.1898 72.8841 72.8841C71.1898 74.5784 69.1468 75.8833 66.8972 76.7081C63.052 78 60.5444 78 51.611 78H26.3829C17.4495 78 14.9419 78 11.0967 76.7081C8.84707 75.8833 6.80408 74.5784 5.1098 72.8841C3.41552 71.1898 2.11059 69.1468 1.28577 66.8972C-8.86246e-06 63.049 0 60.5444 0 51.608V26.392C0 17.4586 0 14.951 1.29492 11.1059C2.11884 8.85571 3.42345 6.81225 5.11785 5.11784C6.81226 3.42344 8.85571 2.11884 11.1059 1.29492C14.9297 0 17.4495 0 26.3829 0Z" fill="black"/>
<path d="M26.3829 1.00324H51.6019C60.571 1.00324 62.9041 1.01365 66.5553 2.24148C68.6637 3.01549 70.5784 4.23903 72.1667 5.82724C73.755 7.41558 74.9786 9.33052 75.7526 11.4391C76.9862 15.087 76.9967 17.4217 76.9967 26.392V51.608C76.9967 60.5794 76.9864 62.9104 75.7614 66.5647C74.9865 68.6725 73.7627 70.5867 72.1747 72.1747C70.5866 73.7627 68.6724 74.9866 66.5646 75.7615C62.9134 76.9864 60.5797 76.9967 51.611 76.9967H26.3829C17.4142 76.9967 15.0805 76.9864 11.4293 75.7615C9.32147 74.9866 7.40724 73.7627 5.8192 72.1747C4.23133 70.5868 3.0076 68.6729 2.23266 66.5653C1.01348 62.9107 1.00324 60.5786 1.00324 51.608V26.392C1.00324 17.4229 1.01365 15.0898 2.24147 11.4386C3.01549 9.33021 4.23904 7.41545 5.82725 5.82724C7.41566 4.23883 9.33069 3.01519 11.4394 2.24119C15.0686 1.01383 17.4121 1.00324 26.3829 1.00324Z" stroke="white" stroke-opacity="0.19"/>
</svg>
