<svg width="64" height="64" viewBox="0 0 64 64" fill="none" xmlns="http://www.w3.org/2000/svg">
<path d="M21.6475 0H42.34C49.67 0 51.7275 0 54.8825 1.0625C56.7288 1.73853 58.4055 2.80898 59.7957 4.19926C61.186 5.58954 62.2565 7.26623 62.9325 9.1125C64 12.265 64 14.325 64 21.655V42.345C64 49.6775 64 51.7325 62.94 54.89C62.2632 56.7359 61.1925 58.4122 59.8023 59.8023C58.4122 61.1925 56.7359 62.2632 54.89 62.94C51.735 64 49.6775 64 42.3475 64H21.6475C14.3175 64 12.26 64 9.105 62.94C7.25914 62.2632 5.58284 61.1925 4.19266 59.8023C2.80247 58.4122 1.73177 56.7359 1.05499 54.89C-7.27177e-06 51.7325 0 49.6775 0 42.345V21.655C0 14.325 0 12.2675 1.0625 9.1125C1.73853 7.26623 2.80898 5.58954 4.19926 4.19926C5.58955 2.80898 7.26623 1.73853 9.1125 1.0625C12.25 0 14.3175 0 21.6475 0Z" fill="black"/>
</svg>
