<svg width="186" height="44" viewBox="0 0 186 44" fill="none" xmlns="http://www.w3.org/2000/svg">
<g clip-path="url(#clip0_0_301)">
<path d="M176.868 13.8833C178.591 13.8833 180.124 14.2331 181.47 14.9327C182.842 15.6054 183.918 16.6549 184.699 18.081C185.479 19.4802 185.869 21.2831 185.869 23.4896V35.4629C185.869 35.716 185.664 35.9212 185.411 35.9212H180.031C179.778 35.9212 179.573 35.716 179.573 35.4629V24.4583C179.573 22.7092 179.183 21.4176 178.402 20.5835C177.649 19.7493 176.572 19.3322 175.173 19.3322C174.178 19.3322 173.276 19.5475 172.469 19.978C171.689 20.3817 171.07 21.014 170.612 21.8751C170.182 22.7361 169.966 23.8394 169.966 25.1848V35.4629C169.966 35.716 169.761 35.9212 169.508 35.9212H164.128C163.875 35.9212 163.67 35.716 163.67 35.4629V14.6645C163.67 14.4114 163.875 14.2062 164.128 14.2062H169.226C169.479 14.2062 169.684 14.4114 169.684 14.6645V16.7855C170.307 16.0913 171.047 15.514 171.904 15.0538C173.357 14.2735 175.012 13.8833 176.868 13.8833Z" fill="black"/>
<path fill-rule="evenodd" clip-rule="evenodd" d="M139.567 33.5802C141.209 34.4412 143.039 34.8718 145.057 34.8718C146.886 34.8718 148.501 34.4951 149.9 33.7416C150.666 33.3295 151.338 32.8007 151.918 32.1552V33.0958C151.918 35.0601 151.407 36.5401 150.385 37.5357C149.389 38.5313 147.775 39.0291 145.541 39.0291C144.169 39.0291 142.77 38.8004 141.343 38.3429C140.159 37.9783 139.147 37.498 138.31 36.9019C138.076 36.7357 137.744 36.7984 137.605 37.0492L135.559 40.7466C135.45 40.9432 135.499 41.1905 135.681 41.3226C136.889 42.2004 138.36 42.8621 140.092 43.3075C142.003 43.8188 143.98 44.0744 146.026 44.0744C149.954 44.0744 152.968 43.1191 155.067 41.2086C157.166 39.2982 158.215 36.3248 158.215 32.2885V14.6645C158.215 14.4114 158.01 14.2062 157.757 14.2062H152.7C152.447 14.2062 152.241 14.4114 152.241 14.6645V16.965C151.592 16.1374 150.812 15.4869 149.9 15.0134C148.501 14.26 146.886 13.8833 145.057 13.8833C143.039 13.8833 141.209 14.3138 139.567 15.1749C137.953 16.036 136.648 17.2603 135.652 18.8479C134.684 20.4086 134.199 22.2518 134.199 24.3775C134.199 26.4764 134.684 28.3196 135.652 29.9072C136.648 31.4679 137.953 32.6922 139.567 33.5802ZM146.308 29.7054C147.411 29.7054 148.393 29.4901 149.254 29.0596C150.115 28.6021 150.788 27.9698 151.273 27.1625C151.757 26.3553 151.999 25.427 151.999 24.3775C151.999 23.3012 151.757 22.3729 151.273 21.5925C150.788 20.7853 150.115 20.1664 149.254 19.7359C148.393 19.2784 147.411 19.0497 146.308 19.0497C145.205 19.0497 144.223 19.2784 143.361 19.7359C142.5 20.1664 141.814 20.7853 141.303 21.5925C140.819 22.3729 140.576 23.3012 140.576 24.3775C140.576 25.427 140.819 26.3553 141.303 27.1625C141.814 27.9698 142.5 28.6021 143.361 29.0596C144.223 29.4901 145.205 29.7054 146.308 29.7054Z" fill="black"/>
<path d="M124.534 35.9215C124.281 35.9215 124.075 35.7163 124.075 35.4632V14.6648C124.075 14.4117 124.281 14.2065 124.534 14.2065H129.914C130.167 14.2065 130.372 14.4117 130.372 14.6648V35.4632C130.372 35.7163 130.167 35.9215 129.914 35.9215H124.534ZM127.224 11.1793C126.067 11.1793 125.125 10.843 124.398 10.1703C123.672 9.49755 123.309 8.66339 123.309 7.66778C123.309 6.67218 123.672 5.83802 124.398 5.16531C125.125 4.4926 126.067 4.15625 127.224 4.15625C128.381 4.15625 129.323 4.47915 130.049 5.12495C130.776 5.74384 131.139 6.55109 131.139 7.5467C131.139 8.59612 130.776 9.47064 130.049 10.1703C129.35 10.843 128.408 11.1793 127.224 11.1793Z" fill="black"/>
<path d="M110.344 36.2441C108.487 36.2441 106.698 36.0288 104.976 35.5983C103.46 35.1894 102.224 34.6945 101.268 34.1135C101.076 33.9967 101.009 33.753 101.104 33.5489L102.82 29.852C102.936 29.6025 103.244 29.511 103.484 29.6458C104.378 30.1479 105.4 30.5714 106.55 30.9163C107.922 31.293 109.268 31.4813 110.586 31.4813C112.039 31.4813 113.062 31.3064 113.654 30.9566C114.273 30.6068 114.582 30.1225 114.582 29.5036C114.582 28.9923 114.34 28.6156 113.855 28.3734C113.398 28.1043 112.779 27.9025 111.999 27.768C111.218 27.6334 110.357 27.4989 109.416 27.3644C108.501 27.2298 107.572 27.0549 106.631 26.8396C105.689 26.5975 104.828 26.2477 104.047 25.7902C103.267 25.3328 102.635 24.7139 102.15 23.9335C101.693 23.1532 101.464 22.1441 101.464 20.9064C101.464 19.534 101.854 18.3232 102.635 17.2737C103.442 16.2243 104.599 15.4036 106.106 14.8116C107.613 14.1927 109.416 13.8833 111.514 13.8833C112.994 13.8833 114.501 14.0447 116.035 14.3676C117.395 14.654 118.554 15.0566 119.512 15.5756C119.718 15.6873 119.794 15.9413 119.695 16.1535L117.984 19.8042C117.87 20.0489 117.57 20.141 117.331 20.0137C116.425 19.5294 115.508 19.1946 114.582 19.0093C113.533 18.7672 112.51 18.6461 111.514 18.6461C110.115 18.6461 109.093 18.8344 108.447 19.2111C107.801 19.5879 107.478 20.0722 107.478 20.6642C107.478 21.2024 107.707 21.606 108.164 21.8751C108.649 22.1441 109.281 22.3594 110.061 22.5209C110.842 22.6823 111.689 22.8303 112.604 22.9649C113.546 23.0725 114.488 23.2474 115.43 23.4896C116.371 23.7317 117.219 24.0815 117.972 24.539C118.753 24.9695 119.385 25.575 119.869 26.3553C120.354 27.1087 120.596 28.1043 120.596 29.3421C120.596 30.6875 120.192 31.885 119.385 32.9344C118.578 33.9569 117.407 34.7641 115.874 35.3561C114.367 35.9481 112.523 36.2441 110.344 36.2441Z" fill="black"/>
<path fill-rule="evenodd" clip-rule="evenodd" d="M88.3913 36.3608C85.9157 36.3608 83.7361 35.8764 81.8526 34.9077C79.9959 33.939 78.5563 32.6205 77.5338 30.9522C76.5113 29.257 76 27.3331 76 25.1804C76 23.0008 76.4978 21.0769 77.4934 19.4086C78.5159 17.7133 79.9017 16.3948 81.6507 15.453C83.3998 14.4843 85.3775 14 87.584 14C89.7098 14 91.6203 14.4574 93.3155 15.3723C95.0376 16.2603 96.3965 17.5519 97.3921 19.2471C98.3877 20.9154 98.8855 22.9201 98.8855 25.2611C98.8855 25.5033 98.8721 25.7858 98.8451 26.1087C98.8317 26.257 98.8182 26.402 98.8047 26.5435C98.7824 26.7779 98.5851 26.9563 98.3496 26.9563H82.3345C82.4613 27.5344 82.6639 28.0726 82.9423 28.5708C83.4805 29.4588 84.2205 30.145 85.1623 30.6293C86.131 31.0868 87.2611 31.3155 88.5527 31.3155C89.7098 31.3155 90.7188 31.1406 91.5799 30.7908C92.3292 30.4956 93.0209 30.0759 93.6552 29.5317C93.8503 29.3644 94.1449 29.372 94.3191 29.5609L97.0717 32.5456C97.2308 32.7181 97.2347 32.984 97.0719 33.1532C96.1249 34.1374 94.967 34.9106 93.598 35.4728C92.0912 36.0648 90.3556 36.3608 88.3913 36.3608ZM90.4498 19.4893C91.257 19.9467 91.8894 20.5925 92.3468 21.4267C92.6504 21.9804 92.8533 22.5993 92.9554 23.2834H82.2618C82.3665 22.6107 82.5665 22.0053 82.8616 21.4671C83.3191 20.606 83.9514 19.9467 84.7586 19.4893C85.5928 19.0049 86.548 18.7628 87.6244 18.7628C88.7007 18.7628 89.6425 19.0049 90.4498 19.4893Z" fill="black"/>
<path d="M45.9368 35.9217C45.6837 35.9217 45.4785 35.7165 45.4785 35.4634V8.1263C45.4785 7.87317 45.6837 7.66797 45.9368 7.66797H58.3138C61.3813 7.66797 64.0856 8.25995 66.4266 9.44392C68.7676 10.601 70.5974 12.2289 71.9159 14.3278C73.2344 16.4266 73.8937 18.9156 73.8937 21.7948C73.8937 24.6471 73.2344 27.1361 71.9159 29.2619C70.5974 31.3607 68.7676 33.0021 66.4266 34.1861C64.0856 35.3432 61.3813 35.9217 58.3138 35.9217H45.9368ZM52.0172 30.5535H57.9909C59.8745 30.5535 61.5024 30.2037 62.8747 29.5041C64.274 28.7775 65.3503 27.755 66.1037 26.4365C66.8841 25.118 67.2742 23.5708 67.2742 21.7948C67.2742 19.992 66.8841 18.4447 66.1037 17.1531C65.3503 15.8346 64.274 14.8256 62.8747 14.126C61.5024 13.3994 59.8745 13.0362 57.9909 13.0362H52.0172V30.5535Z" fill="black"/>
<path d="M29.5208 24.3178C29.2677 24.3178 29.0625 24.1126 29.0625 23.8594V19.7308C29.0625 19.4777 29.2677 19.2725 29.5208 19.2725H40.0267C40.2799 19.2725 40.4851 19.4777 40.4851 19.7308V23.8594C40.4851 24.1126 40.2799 24.3178 40.0267 24.3178H29.5208Z" fill="black"/>
<path fill-rule="evenodd" clip-rule="evenodd" d="M13.9702 16.815L7.62937 7.86141C7.54344 7.74008 7.404 7.66797 7.25533 7.66797H0.956565C0.583721 7.66797 0.366884 8.08945 0.583667 8.39279L9.97565 21.535L0.0685996 35.1943C-0.151173 35.4973 0.0652993 35.9217 0.439618 35.9217H6.80651C6.95788 35.9217 7.09949 35.8469 7.1849 35.722L13.7595 26.103L20.4331 35.7246C20.5187 35.848 20.6594 35.9217 20.8097 35.9217H27.2218C27.5956 35.9217 27.8122 35.4983 27.5935 35.1952L17.5776 21.3118L26.9066 8.39465C27.1255 8.09154 26.9089 7.66797 26.5351 7.66797H20.5673C20.4172 7.66797 20.2766 7.74147 20.1909 7.86472L13.9702 16.815Z" fill="black"/>
</g>
<defs>
<clipPath id="clip0_0_301">
<rect width="93" height="22" fill="white" transform="scale(2)"/>
</clipPath>
</defs>
</svg>
