<svg width="64" height="64" viewBox="0 0 64 64" fill="none" xmlns="http://www.w3.org/2000/svg">
<g clip-path="url(#clip0_0_293)">
<path d="M21.6475 0H42.34C49.67 0 51.7275 0 54.8825 1.0625C56.7288 1.73853 58.4055 2.80898 59.7957 4.19926C61.186 5.58954 62.2565 7.26623 62.9325 9.1125C64 12.265 64 14.325 64 21.655V42.345C64 49.6775 64 51.7325 62.94 54.89C62.2632 56.7359 61.1925 58.4122 59.8023 59.8023C58.4122 61.1925 56.7359 62.2632 54.89 62.94C51.735 64 49.6775 64 42.3475 64H21.6475C14.3175 64 12.26 64 9.105 62.94C7.25914 62.2632 5.58284 61.1925 4.19266 59.8023C2.80247 58.4122 1.73177 56.7359 1.05499 54.89C-7.27177e-06 51.7325 0 49.6775 0 42.345V21.655C0 14.325 0 12.2675 1.0625 9.1125C1.73853 7.26623 2.80898 5.58954 4.19926 4.19926C5.58955 2.80898 7.26623 1.73853 9.1125 1.0625C12.25 0 14.3175 0 21.6475 0Z" fill="black"/>
<path d="M43.0943 42.4375L48.8906 42.4375C54.6896 42.4375 59.3906 37.7365 59.3906 31.9375C59.3906 26.1385 54.6896 21.4375 48.8906 21.4375L43.0943 21.4375C41.325 21.4375 39.8906 22.8718 39.8906 24.6412L39.8906 39.2338C39.8906 41.0032 41.325 42.4375 43.0943 42.4375Z" fill="#FC6BFF"/>
<path d="M29.4766 35.0039C27.783 35.0039 26.4102 33.631 26.4102 31.9375C26.4102 30.2439 27.783 28.8711 29.4766 28.8711L34.2659 28.8711C35.9595 28.8711 37.3324 30.2439 37.3324 31.9375C37.3324 33.631 35.9595 35.0039 34.2659 35.0039L29.4766 35.0039Z" fill="#11F1FF"/>
<path fill-rule="evenodd" clip-rule="evenodd" d="M18.4044 22.5091C20.1665 20.747 23.0236 20.747 24.7858 22.5091C26.548 24.2713 26.548 27.1284 24.7858 28.8906L21.7388 31.9375L24.7858 34.9844C26.548 36.7466 26.548 39.6037 24.7858 41.3659C23.0236 43.128 20.1665 43.128 18.4044 41.3659L15.3574 38.3189L12.3105 41.3659C10.5483 43.128 7.69124 43.128 5.92906 41.3659C4.16688 39.6037 4.16688 36.7466 5.92906 34.9844L8.976 31.9375L5.92906 28.8906C4.16688 27.1284 4.16688 24.2713 5.92906 22.5091C7.69124 20.747 10.5483 20.747 12.3105 22.5091L15.3574 25.5561L18.4044 22.5091Z" fill="#ACFF43"/>
</g>
<defs>
<clipPath id="clip0_0_293">
<rect width="32" height="32" fill="white" transform="scale(2)"/>
</clipPath>
</defs>
</svg>
