<svg width="23" height="30" viewBox="0 0 23 30" fill="none" xmlns="http://www.w3.org/2000/svg">
<path d="M10.5713 30.0001C8.51722 30.0001 6.53072 29.7433 4.6118 29.2298C2.87191 28.7824 1.3949 28.1178 0.180762 27.2361C-0.00186683 27.1035 -0.0511434 26.855 0.0581693 26.6575L2.11398 22.9438C2.2534 22.692 2.58701 22.629 2.82154 22.7959C3.66279 23.3946 4.67847 23.8771 5.86857 24.2433C7.301 24.7027 8.7064 24.9325 10.0848 24.9325C12.328 24.9325 13.9497 24.4325 14.9497 23.4325C15.9767 22.4325 16.4902 20.946 16.4902 18.973V15.6892L16.8956 10.2162L16.8145 4.70271V0.460357C16.8145 0.206109 17.0206 0 17.2749 0H22.3542C22.6084 0 22.8145 0.206109 22.8145 0.460356V18.1622C22.8145 22.2163 21.7605 25.2027 19.6524 27.1217C17.5443 29.0406 14.5172 30.0001 10.5713 30.0001Z" fill="black"/>
</svg>
