<svg width="8" height="32" viewBox="0 0 8 32" fill="none" xmlns="http://www.w3.org/2000/svg">
<path d="M1.23427 31.9996C0.979267 31.9996 0.77255 31.7929 0.77255 31.5379V10.5861C0.77255 10.3311 0.979267 10.1244 1.23426 10.1244H6.65384C6.90883 10.1244 7.11555 10.3311 7.11555 10.5861V31.5379C7.11555 31.7929 6.90883 31.9996 6.65384 31.9996H1.23427ZM3.94405 7.07488C2.77846 7.07488 1.82971 6.73605 1.09783 6.05838C0.365943 5.38071 0 4.5404 0 3.53744C0 2.53449 0.365943 1.69418 1.09783 1.01651C1.82971 0.338836 2.77846 0 3.94405 0C5.10964 0 6.05838 0.325283 6.79026 0.975848C7.52214 1.59931 7.88809 2.41251 7.88809 3.41546C7.88809 4.47263 7.52214 5.3536 6.79026 6.05838C6.08548 6.73605 5.13675 7.07488 3.94405 7.07488Z" fill="black"/>
</svg>
