<svg width="40" height="40" viewBox="0 0 40 40" fill="none" xmlns="http://www.w3.org/2000/svg">
<path fill-rule="evenodd" clip-rule="evenodd" d="M11.7393 0.245458C8.48352 0.392357 5.66161 1.18835 3.38298 3.45736C1.09639 5.7383 0.310282 8.57139 0.163016 11.7933C0.0714726 13.8042 -0.463827 28.9965 1.08843 32.9807C2.13521 35.6686 4.19687 37.7352 6.90934 38.7854C8.17502 39.2777 9.61985 39.611 11.7393 39.7082C29.4609 40.5102 36.0301 40.0736 38.8002 32.9807C39.2918 31.7182 39.6301 30.2746 39.7236 28.1604C40.5336 10.3934 39.5923 6.54227 36.5037 3.45736C34.054 1.01365 31.1723 -0.64984 11.7393 0.245458ZM11.9024 36.135C9.9621 36.0476 8.90937 35.7243 8.20688 35.4524C6.43969 34.7655 5.11232 33.4436 4.42973 31.6868C3.24763 28.6594 3.63969 14.281 3.74516 11.9544C3.84864 9.67546 4.31033 7.59265 5.91831 5.9847C7.90838 3.99955 10.4795 3.02664 27.9862 3.81674C30.2708 3.91996 32.3584 4.3807 33.9704 5.9847C35.9604 7.96983 36.9475 10.5608 36.1435 28.0003C36.0559 29.9358 35.7316 30.986 35.4589 31.6868C33.6579 36.3022 29.5146 36.9429 11.9024 36.135ZM28.1792 9.37922C28.1792 10.6934 29.2479 11.762 30.5674 11.762C31.8868 11.762 32.9574 10.6934 32.9574 9.37922C32.9574 8.06506 31.8868 6.99739 30.5674 6.99739C29.2479 6.99739 28.1792 8.06506 28.1792 9.37922ZM9.72531 19.9759C9.72531 25.6057 14.3005 30.1702 19.9443 30.1702C25.5882 30.1702 30.1634 25.6057 30.1634 19.9759C30.1634 14.346 25.5882 9.78449 19.9443 9.78449C14.3005 9.78449 9.72531 14.346 9.72531 19.9759ZM13.3114 19.9759C13.3114 16.3232 16.2806 13.3597 19.9443 13.3597C23.6081 13.3597 26.5772 16.3232 26.5772 19.9759C26.5772 23.6305 23.6081 26.595 19.9443 26.595C16.2806 26.595 13.3114 23.6305 13.3114 19.9759Z" fill="#F9FAFB"/>
</svg>
