<svg width="88" height="81" viewBox="0 0 88 81" fill="none" xmlns="http://www.w3.org/2000/svg">
<path d="M63.9284 7.46219e-07H22.0716C18.8202 -2.82337e-05 16.1978 -5.16027e-05 14.0741 0.173456C11.8876 0.352104 9.96702 0.729542 8.19015 1.6349C5.36771 3.073 3.07301 5.36771 1.63491 8.19015C0.729543 9.96702 0.352105 11.8876 0.173457 14.0741C-5.03361e-05 16.1978 -2.75409e-05 18.8202 7.18605e-07 22.0715V49.9284C-1.89811e-05 52.1949 -3.60236e-05 54.1559 0.0587322 55.8552C-0.0384848 56.3404 -0.0150844 56.8451 0.129478 57.3214C0.142734 57.5272 0.157348 57.7287 0.173457 57.9259C0.352105 60.1124 0.729543 62.033 1.63491 63.8099C3.07301 66.6323 5.36772 68.927 8.19015 70.3651C9.96702 71.2705 11.8876 71.6479 14.0741 71.8265C16.1978 72.0001 18.8202 72 22.0715 72H42.8C44.4569 72 45.8 70.6569 45.8 69C45.8 67.3431 44.4569 66 42.8 66H22.2C18.7902 66 16.4132 65.9977 14.5627 65.8465C12.7472 65.6981 11.7042 65.4216 10.9141 65.0191C9.22063 64.1562 7.8438 62.7794 6.98094 61.0859C6.58682 60.3124 6.31351 59.2964 6.16302 57.5504L20.7669 43.2704C23.1562 40.9341 24.8221 39.3083 26.2222 38.1447C27.5948 37.0039 28.5165 36.478 29.3501 36.2113C31.134 35.6405 33.0516 35.6405 34.8356 36.2113C35.6692 36.478 36.5908 37.0039 37.9634 38.1447C39.3635 39.3083 41.0294 40.9341 43.4188 43.2704L53.5173 53.145C54.7019 54.3033 56.6013 54.282 57.7597 53.0974C58.918 51.9128 58.8967 50.0134 57.7121 48.855L47.523 38.8919C45.2456 36.6649 43.4073 34.8674 41.7985 33.5303C40.1409 32.1526 38.5337 31.095 36.6641 30.4967C33.6908 29.5454 30.4948 29.5454 27.5216 30.4967C25.6519 31.095 24.0448 32.1527 22.3872 33.5303C20.7784 34.8674 18.9402 36.6649 16.6628 38.8918L6 49.3181V22.2C6 18.7902 6.00234 16.4132 6.15353 14.5627C6.30186 12.7472 6.57839 11.7042 6.98094 10.9141C7.8438 9.22063 9.22063 7.8438 10.9141 6.98094C11.7042 6.57838 12.7472 6.30186 14.5627 6.15353C16.4132 6.00234 18.7902 6 22.2 6H63.8C67.2098 6 69.5868 6.00234 71.4373 6.15353C73.2528 6.30186 74.2958 6.57838 75.0859 6.98094C76.7794 7.8438 78.1562 9.22063 79.0191 10.9141C79.4216 11.7042 79.6981 12.7472 79.8465 14.5627C79.9977 16.4132 80 18.7902 80 22.2V40.8C80 42.4569 81.3431 43.8 83 43.8C84.6569 43.8 86 42.4569 86 40.8V22.0715C86 18.8202 86.0001 16.1978 85.8265 14.0741C85.6479 11.8876 85.2705 9.96702 84.3651 8.19015C82.927 5.36771 80.6323 3.073 77.8099 1.6349C76.033 0.729542 74.1124 0.352104 71.9259 0.173456C69.8022 -5.16027e-05 67.1797 -2.82337e-05 63.9284 7.46219e-07Z" fill="#374151"/>
<path d="M50 25C50 18.9249 54.9249 14 61 14C67.0751 14 72 18.9249 72 25C72 31.0751 67.0751 36 61 36C54.9249 36 50 31.0751 50 25ZM61 20C58.2386 20 56 22.2386 56 25C56 27.7614 58.2386 30 61 30C63.7614 30 66 27.7614 66 25C66 22.2386 63.7614 20 61 20Z" fill="#374151"/>
<path d="M74 50C74 48.3431 72.6569 47 71 47C69.3431 47 68 48.3431 68 50V61H57C55.3431 61 54 62.3431 54 64C54 65.6569 55.3431 67 57 67H68V78C68 79.6569 69.3431 81 71 81C72.6569 81 74 79.6569 74 78V67H85C86.6569 67 88 65.6569 88 64C88 62.3431 86.6569 61 85 61H74V50Z" fill="#374151"/>
</svg>
