<svg width="30" height="37" viewBox="0 0 30 37" fill="none" xmlns="http://www.w3.org/2000/svg">
<path fill-rule="evenodd" clip-rule="evenodd" d="M6.5791 24.1398C8.59075 25.1951 10.8332 25.7228 13.3066 25.7228C15.5491 25.7228 17.5278 25.2611 19.2426 24.3377C20.1805 23.8327 21.005 23.1846 21.716 22.3935V23.545C21.716 25.9524 21.0894 27.7661 19.8362 28.9863C18.6161 30.2065 16.6374 30.8166 13.9002 30.8166C12.2183 30.8166 10.5035 30.5363 8.75567 29.9757C7.30353 29.5288 6.06423 28.9402 5.03774 28.2096C4.75157 28.0059 4.34451 28.0828 4.17439 28.3901L1.66593 32.9215C1.53255 33.1624 1.59268 33.4656 1.81552 33.6274C3.29699 34.7033 5.09921 35.5142 7.22219 36.0601C9.56362 36.6867 11.9875 37 14.4938 37C19.3086 37 23.0021 35.8292 25.5744 33.4878C28.1467 31.1464 29.4328 27.5023 29.4328 22.5556V0.956196C29.4328 0.645968 29.1813 0.394478 28.8711 0.394478H22.6734C22.3632 0.394478 22.1117 0.645968 22.1117 0.956196V3.7767C21.3164 2.76246 20.36 1.96525 19.2426 1.38507C17.5278 0.461691 15.5491 0 13.3066 0C10.8332 0 8.59075 0.527645 6.5791 1.58294C4.60043 2.63823 3.00099 4.13873 1.78081 6.08442C0.593603 7.99714 0 10.2561 0 12.8614C0 15.4337 0.593603 17.6926 1.78081 19.6383C3.00099 21.5511 4.60043 23.0516 6.5791 24.1398ZM14.8401 19.391C16.1922 19.391 17.3959 19.1272 18.4511 18.5995C19.5064 18.0389 20.3309 17.2639 20.9245 16.2746C21.5181 15.2853 21.8149 14.1475 21.8149 12.8614C21.8149 11.5423 21.5181 10.4045 20.9245 9.44817C20.3309 8.45883 19.5064 7.70034 18.4511 7.17269C17.3959 6.61207 16.1922 6.33176 14.8401 6.33176C13.488 6.33176 12.2843 6.61207 11.229 7.17269C10.1737 7.70034 9.33274 8.45883 8.70616 9.44817C8.11256 10.4045 7.81576 11.5423 7.81576 12.8614C7.81576 14.1475 8.11256 15.2853 8.70616 16.2746C9.33274 17.2639 10.1737 18.0389 11.229 18.5995C12.2843 19.1272 13.488 19.391 14.8401 19.391Z" fill="white"/>
</svg>
