<svg width="27" height="27" viewBox="0 0 27 27" fill="none" xmlns="http://www.w3.org/2000/svg">
<path fill-rule="evenodd" clip-rule="evenodd" d="M17.326 1.65969C19.5389 -0.55323 23.1268 -0.55323 25.3397 1.65969C27.5526 3.87261 27.5526 7.46046 25.3397 9.67338L21.5134 13.4997L25.3397 17.326C27.5526 19.5389 27.5526 23.1268 25.3397 25.3397C23.1268 27.5526 19.5389 27.5526 17.326 25.3397L13.4997 21.5134L9.67337 25.3397C7.46046 27.5526 3.87261 27.5526 1.65969 25.3397C-0.553229 23.1268 -0.553229 19.5389 1.65969 17.326L5.48599 13.4997L1.65969 9.67338C-0.553228 7.46046 -0.553228 3.87261 1.65969 1.65969C3.87261 -0.55323 7.46046 -0.55323 9.67338 1.65969L13.4997 5.48599L17.326 1.65969Z" fill="#ACFF43"/>
</svg>
