<svg width="34" height="35" viewBox="0 0 34 35" fill="none" xmlns="http://www.w3.org/2000/svg">
<path fill-rule="evenodd" clip-rule="evenodd" d="M17.1713 11.2276L9.3882 0.237442C9.28273 0.0885166 9.11158 0 8.92909 0H1.19776C0.740116 0 0.473962 0.517334 0.740049 0.889672L12.2683 17.0212L0.108175 33.7868C-0.161582 34.1587 0.104125 34.6796 0.563577 34.6796H8.37853C8.56433 34.6796 8.73814 34.5879 8.84298 34.4345L16.9127 22.628L25.1039 34.4377C25.2091 34.5892 25.3818 34.6796 25.5662 34.6796H33.4366C33.8954 34.6796 34.1613 34.16 33.8929 33.7879L21.5992 16.7471L33.0501 0.891957C33.3188 0.519911 33.053 0 32.5941 0H25.269C25.0847 0 24.9122 0.0902136 24.807 0.241501L17.1713 11.2276Z" fill="white"/>
</svg>
