<svg width="46" height="46" viewBox="0 0 46 46" fill="none" xmlns="http://www.w3.org/2000/svg">
<path fill-rule="evenodd" clip-rule="evenodd" d="M46 23C46 35.7025 35.7025 46 23 46C10.2975 46 0 35.7025 0 23C0 10.2975 10.2975 0 23 0C35.7025 0 46 10.2975 46 23ZM25.3845 7.05859H30.4796H30.4821V12.557C30.1903 12.5587 29.3226 12.558 28.5281 12.5575C28.1571 12.5572 27.802 12.557 27.529 12.557C27.5252 12.557 27.5194 12.5568 27.5118 12.5567C27.2979 12.5523 25.6184 12.5178 25.6184 14.1898C25.6293 14.8972 25.6184 17.3331 25.6184 17.3331H30.5019L30.1062 22.8092H25.7325V38.9389H19.1061V22.9149H15.5V17.3488H18.9979C18.9979 16.7884 18.9996 16.2493 19.0013 15.7217C19.0045 14.6995 19.0076 13.7203 18.9979 12.7131C18.9979 8.33027 22.361 7.05859 25.3845 7.05859Z" fill="#F9FAFB"/>
</svg>
