<svg width="10" height="39" viewBox="0 0 10 39" fill="none" xmlns="http://www.w3.org/2000/svg">
<path d="M1.50428 39C1.1935 39 0.941557 38.7481 0.941557 38.4373V12.902C0.941557 12.5912 1.1935 12.3393 1.50428 12.3393H8.10947C8.42025 12.3393 8.67219 12.5912 8.67219 12.902V38.4373C8.67219 38.7481 8.42025 39 8.10947 39H1.50428ZM4.80687 8.62263C3.38629 8.62263 2.22999 8.20966 1.33799 7.38374C0.445998 6.55782 0 5.53368 0 4.31131C0 3.08895 0.445998 2.06481 1.33799 1.23888C2.22999 0.412962 3.38629 0 4.80687 0C6.22746 0 7.38374 0.396443 8.27573 1.18933C9.16773 1.94918 9.61373 2.94028 9.61373 4.16265C9.61373 5.45109 9.16773 6.52478 8.27573 7.38374C7.41678 8.20966 6.26049 8.62263 4.80687 8.62263Z" fill="white"/>
</svg>
