<svg width="22" height="22" viewBox="0 0 22 22" fill="none" xmlns="http://www.w3.org/2000/svg">
<path fill-rule="evenodd" clip-rule="evenodd" d="M14.1178 1.35237C15.921 -0.45079 18.8445 -0.45079 20.6476 1.35237C22.4508 3.15553 22.4508 6.07904 20.6476 7.8822L17.5298 11L20.6476 14.1178C22.4508 15.921 22.4508 18.8445 20.6476 20.6476C18.8445 22.4508 15.921 22.4508 14.1178 20.6476L11 17.5298L7.8822 20.6476C6.07903 22.4508 3.15553 22.4508 1.35237 20.6476C-0.45079 18.8445 -0.45079 15.921 1.35237 14.1178L4.47017 11L1.35237 7.8822C-0.450789 6.07904 -0.450789 3.15553 1.35237 1.35237C3.15553 -0.45079 6.07904 -0.45079 7.8822 1.35237L11 4.47017L14.1178 1.35237Z" fill="#ACFF43"/>
</svg>
