<svg width="25" height="31" viewBox="0 0 25 31" fill="none" xmlns="http://www.w3.org/2000/svg">
<path fill-rule="evenodd" clip-rule="evenodd" d="M5.51199 20.2244C7.19735 21.1085 9.07611 21.5506 11.1483 21.5506C13.0271 21.5506 14.6848 21.1638 16.1215 20.3902C16.9073 19.967 17.5981 19.4241 18.1938 18.7613V19.727C18.1938 21.744 17.6688 23.2636 16.6189 24.2858C15.5966 25.3081 13.9389 25.8192 11.6457 25.8192C10.2366 25.8192 8.79992 25.5844 7.33558 25.1147C6.11898 24.7404 5.08069 24.2471 4.2207 23.6351C3.98094 23.4644 3.6399 23.5288 3.49738 23.7863L1.39579 27.5827C1.28404 27.7846 1.33442 28.0386 1.52111 28.1742C2.76229 29.0755 4.27219 29.7549 6.05083 30.2122C8.01249 30.7372 10.0432 30.9997 12.143 30.9997C16.1768 30.9997 19.2713 30.0188 21.4264 28.0572C23.5814 26.0955 24.6589 23.0425 24.6589 18.8982V0.802124C24.6589 0.542214 24.4482 0.331515 24.1883 0.331515H18.9959C18.736 0.331515 18.5253 0.542215 18.5253 0.802125V3.16421C17.859 2.31444 17.0577 1.64651 16.1215 1.16042C14.6848 0.386805 13.0271 0 11.1483 0C9.07611 0 7.19735 0.442063 5.51199 1.32619C3.85425 2.21032 2.51424 3.46743 1.49196 5.09754C0.497322 6.70002 0 8.59261 0 10.7753C0 12.9304 0.497322 14.8229 1.49196 16.453C2.51424 18.0555 3.85425 19.3126 5.51199 20.2244ZM12.433 16.2458C13.5658 16.2458 14.5743 16.0248 15.4584 15.5827C16.3425 15.113 17.0333 14.4638 17.5306 13.6349C18.0279 12.806 18.2766 11.8528 18.2766 10.7753C18.2766 9.67014 18.0279 8.71694 17.5306 7.9157C17.0333 7.08683 16.3425 6.45136 15.4584 6.0093C14.5743 5.53961 13.5658 5.30476 12.433 5.30476C11.3002 5.30476 10.2918 5.53961 9.40766 6.0093C8.52353 6.45136 7.81899 7.08683 7.29404 7.9157C6.79672 8.71694 6.54806 9.67014 6.54806 10.7753C6.54806 11.8528 6.79672 12.806 7.29404 13.6349C7.81899 14.4638 8.52353 15.113 9.40766 15.5827C10.2918 16.0248 11.3002 16.2458 12.433 16.2458Z" fill="black"/>
</svg>
