<svg width="23" height="23" viewBox="0 0 23 23" fill="none" xmlns="http://www.w3.org/2000/svg">
<path fill-rule="evenodd" clip-rule="evenodd" d="M12.4537 22.4734C9.96563 22.4734 7.77509 21.9866 5.88203 21.013C4.016 20.0395 2.56916 18.7143 1.54149 17.0376C0.513828 15.3338 0 13.4002 0 11.2367C0 9.04615 0.500308 7.11252 1.50093 5.4358C2.52859 3.73204 3.92135 2.4069 5.67919 1.46036C7.43704 0.486788 9.42476 0 11.6424 0C13.7788 0 15.6989 0.459745 17.4027 1.37923C19.1335 2.27168 20.4992 3.56978 21.4998 5.27354C22.5004 6.95026 23.0007 8.96502 23.0007 11.3178C23.0007 11.5612 22.9872 11.8452 22.9602 12.1697C22.9466 12.3188 22.9331 12.4644 22.9195 12.6067C22.8971 12.8423 22.6988 13.0216 22.4622 13.0216H6.36638C6.49382 13.6026 6.69746 14.1434 6.9773 14.6442C7.51817 15.5367 8.26188 16.2263 9.20841 16.7131C10.182 17.1728 11.3178 17.4027 12.6159 17.4027C13.7788 17.4027 14.7929 17.2269 15.6584 16.8753C16.4114 16.5787 17.1066 16.1569 17.7441 15.6099C17.9402 15.4417 18.2363 15.4494 18.4114 15.6393L21.1778 18.6389C21.3377 18.8124 21.3416 19.0796 21.178 19.2496C20.2263 20.2388 19.0625 21.0159 17.6866 21.5809C16.1722 22.1759 14.4279 22.4734 12.4537 22.4734ZM14.5225 5.51693C15.3338 5.97668 15.9694 6.62573 16.4291 7.46409C16.7343 8.02056 16.9381 8.64257 17.0407 9.33011H6.29334C6.39858 8.65407 6.59953 8.04558 6.89617 7.50465C7.35591 6.63925 7.99144 5.97668 8.80275 5.51693C9.64111 5.03015 10.6012 4.78675 11.6829 4.78675C12.7647 4.78675 13.7112 5.03015 14.5225 5.51693Z" fill="black"/>
</svg>
