<svg width="28" height="29" viewBox="0 0 28 29" fill="none" xmlns="http://www.w3.org/2000/svg">
<path fill-rule="evenodd" clip-rule="evenodd" d="M14.1406 9.24569L7.73141 0.195532C7.64456 0.072893 7.50362 0 7.35334 0H0.986626C0.609759 0 0.390584 0.426023 0.609705 0.732641L10.103 14.0167L0.0890816 27.8232C-0.133062 28.1295 0.0857457 28.5585 0.464102 28.5585H6.89968C7.05268 28.5585 7.19582 28.483 7.28215 28.3566L13.9277 18.6339L20.6733 28.3593C20.7598 28.4841 20.902 28.5585 21.0539 28.5585H27.5352C27.913 28.5585 28.1319 28.1306 27.9109 27.8242L17.7869 13.791L27.2166 0.734522C27.4379 0.428144 27.219 0 26.841 0H20.8089C20.6572 0 20.515 0.0742905 20.4285 0.198875L14.1406 9.24569Z" fill="black"/>
</svg>
