<svg width="20" height="23" viewBox="0 0 20 23" fill="none" xmlns="http://www.w3.org/2000/svg">
<path d="M9.50426 22.8929C7.6034 22.8929 5.77142 22.6725 4.00831 22.2317C2.45687 21.8131 1.1916 21.3064 0.212511 20.7116C0.015614 20.592 -0.0526424 20.3425 0.0443722 20.1336L1.80162 16.3487C1.92025 16.0932 2.23541 15.9996 2.48105 16.1375C3.39658 16.6516 4.44287 17.0851 5.61991 17.4383C7.02488 17.8239 8.40231 18.0168 9.75219 18.0168C11.2398 18.0168 12.2867 17.8377 12.8927 17.4796C13.5263 17.1214 13.8432 16.6256 13.8432 15.992C13.8432 15.4685 13.5952 15.0829 13.0993 14.8349C12.631 14.5594 11.9974 14.3528 11.1985 14.2151C10.3996 14.0773 9.51803 13.9396 8.55383 13.8018C7.61717 13.6641 6.66675 13.485 5.70255 13.2646C4.73835 13.0167 3.85679 12.6586 3.05788 12.1902C2.25897 11.7219 1.61159 11.0883 1.11571 10.2894C0.647386 9.49049 0.41322 8.45742 0.41322 7.19018C0.41322 5.7852 0.812677 4.54552 1.61159 3.47112C2.43804 2.39673 3.62263 1.55649 5.16535 0.950427C6.70807 0.31681 8.55383 0 10.7026 0C12.2178 0 13.7605 0.165291 15.3308 0.495873C16.7231 0.788993 17.9097 1.20124 18.8905 1.7326C19.1014 1.84688 19.1793 2.10697 19.0775 2.32422L17.3265 6.0618C17.2092 6.31236 16.9019 6.40663 16.6579 6.27624C15.7298 5.78044 14.7916 5.43769 13.8432 5.24801C12.7688 5.00007 11.7219 4.8761 10.7026 4.8761C9.27009 4.8761 8.22324 5.06894 7.56208 5.45462C6.90091 5.8403 6.57033 6.33618 6.57033 6.94224C6.57033 7.49322 6.80449 7.90645 7.27282 8.18193C7.76869 8.45742 8.41608 8.6778 9.21499 8.8431C10.0139 9.00839 10.8817 9.15991 11.8183 9.29765C12.7825 9.40784 13.7467 9.58691 14.7109 9.83485C15.6751 10.0828 16.5429 10.4409 17.3143 10.9092C18.1132 11.35 18.7606 11.9699 19.2565 12.7688C19.7523 13.5401 20.0003 14.5594 20.0003 15.8267C20.0003 17.2041 19.587 18.43 18.7606 19.5044C17.9341 20.5512 16.7358 21.3777 15.1655 21.9838C13.6228 22.5898 11.7357 22.8929 9.50426 22.8929Z" fill="black"/>
</svg>
