<svg width="28" height="28" viewBox="0 0 28 28" fill="none" xmlns="http://www.w3.org/2000/svg">
<path fill-rule="evenodd" clip-rule="evenodd" d="M20.8194 1.49898C18.8207 -0.499645 15.5803 -0.499654 13.5817 1.49897L1.49815 13.5825C-0.50048 15.5812 -0.500474 18.8216 1.49815 20.8202L7.17901 26.5011C9.17763 28.4997 12.418 28.4997 14.4167 26.5011L26.5002 14.4175C28.4989 12.4189 28.4989 9.17846 26.5002 7.17984L20.8194 1.49898ZM16.7032 4.62043C16.9779 4.34574 17.4232 4.34574 17.6979 4.62043L23.3788 10.3013C23.6535 10.576 23.6535 11.0214 23.3788 11.296L16.3958 18.279L9.72018 11.6034L16.7032 4.62043ZM6.59873 14.7249L4.6196 16.704C4.34491 16.9787 4.34491 17.424 4.6196 17.6987L10.3005 23.3796C10.5752 23.6543 11.0205 23.6543 11.2952 23.3796L13.2743 21.4005L6.59873 14.7249Z" fill="#F9FAFB"/>
</svg>
